<svg xmlns="http://www.w3.org/2000/svg" width="40.781" height="46.435" viewBox="0 0 40.781 46.435">
  <g id="bio-energy" transform="translate(-88.48 -130)">
    <path id="Path_123" data-name="Path 123" d="M483.065,341.429a1.783,1.783,0,0,1-1.892.976c-.675-.043-1.354,0-2.032-.011a1.386,1.386,0,1,1,.008-2.76c.678-.006,1.357.033,2.032-.01a1.761,1.761,0,0,1,1.884.989Z" transform="translate(-353.805 -190.578)" fill="#fff"/>
    <path id="Path_124" data-name="Path 124" d="M299.6,130a1.6,1.6,0,0,1,1.005,1.729c-.045.767-.005,1.539-.011,2.308a1.357,1.357,0,1,1-2.713,0c-.005-.769.035-1.54-.011-2.308a1.6,1.6,0,0,1,1-1.729Z" transform="translate(-190.366)" fill="#fff"/>
    <path id="Path_125" data-name="Path 125" d="M128.292,245.763v5.2l.077.075c.108-.132.209-.271.327-.393a12,12,0,0,1,6.627-3.817,14.1,14.1,0,0,1,6.912.614,21.632,21.632,0,0,1,2.507,1.02,1.31,1.31,0,0,1,.626,1.875,15.324,15.324,0,0,1-6.9,6.822,11.5,11.5,0,0,1-7.13.71c-1.045-.2-2.067-.513-3.119-.78a1.338,1.338,0,0,1-1.329.921,1.357,1.357,0,0,1-1.3-.945c-.484.147-.965.3-1.453.44a12.87,12.87,0,0,1-8.006-.045,13.467,13.467,0,0,1-6.038-4.678,21.935,21.935,0,0,1-1.52-2.3,1.352,1.352,0,0,1,.639-2.071,15.908,15.908,0,0,1,8.449-1.707,10.964,10.964,0,0,1,6.266,2.769c.536.462,1.038.965,1.582,1.475v-5.18c-.739,0-1.489.01-2.238,0a3.16,3.16,0,0,1-3.126-2.731,11.459,11.459,0,0,1-.018-2.308,2.741,2.741,0,0,0-.936-2.337,10.881,10.881,0,0,1,5.622-18.314,10.82,10.82,0,0,1,12.843,9.028,10.593,10.593,0,0,1-3.629,9.883.863.863,0,0,0-.332.73c.021.951.012,1.9.006,2.855a3.175,3.175,0,0,1-3.145,3.2C129.822,245.774,129.083,245.763,128.292,245.763Zm-.02-8.21c.958,0,1.862.015,2.765-.011a1.258,1.258,0,0,0,.7-.227,7.935,7.935,0,0,0,3.213-7.839,8.1,8.1,0,0,0-9.492-6.742,8.149,8.149,0,0,0-3.343,14.606c.109.077.231.192.347.193,1.02.015,2.04.009,3.094.009,0-1.591.006-3.129-.01-4.668a.707.707,0,0,0-.227-.411c-.7-.714-1.416-1.4-2.1-2.125a1.361,1.361,0,0,1,1.909-1.939c.2.18.388.381.58.573l1.219,1.221c.6-.608,1.15-1.169,1.707-1.722a1.359,1.359,0,0,1,2.3.518,1.306,1.306,0,0,1-.332,1.377c-.685.7-1.389,1.389-2.074,2.091a.71.71,0,0,0-.236.406C128.265,234.4,128.272,235.941,128.272,237.553Zm-3.6,16.871c-3.349-5.216-8.252-6.064-12.943-4.073C115.014,255.269,119.431,256.464,124.674,254.424Zm17.483-4.117c-2.614-.955-5.209-1.37-7.85-.345a11.221,11.221,0,0,0-5.151,4.452C134.586,256.519,138.954,255.14,142.157,250.307Zm-11.165-9.956h-8.158v2.114c0,.377.2.548.568.548h1.5c1.812,0,3.625,0,5.437,0,.385,0,.658-.107.658-.55C130.993,241.773,130.992,241.08,130.992,240.351Z" transform="translate(-18.043 -81.687)" fill="#fff"/>
    <path id="Path_126" data-name="Path 126" d="M91.218,339.75c.422,0,.845-.01,1.266,0a1.379,1.379,0,1,1,0,2.756q-1.289.03-2.578,0a1.372,1.372,0,0,1-1.431-1.374,1.391,1.391,0,0,1,1.471-1.382C90.374,339.743,90.8,339.75,91.218,339.75Z" transform="translate(0 -190.696)" fill="#fff"/>
    <path id="Path_127" data-name="Path 127" d="M152.869,196.174a3.545,3.545,0,0,1-.794-.459c-.646-.589-1.252-1.223-1.862-1.85a1.366,1.366,0,1,1,1.907-1.955q.978.941,1.916,1.925a1.278,1.278,0,0,1,.258,1.54A1.436,1.436,0,0,1,152.869,196.174Z" transform="translate(-55.735 -55.92)" fill="#fff"/>
    <path id="Path_128" data-name="Path 128" d="M426.311,196.117a1.453,1.453,0,0,1-1.387-.81,1.257,1.257,0,0,1,.216-1.472c.658-.706,1.34-1.392,2.046-2.049a1.349,1.349,0,0,1,1.88.073,1.364,1.364,0,0,1,0,1.886c-.644.678-1.3,1.347-1.989,1.977A2.757,2.757,0,0,1,426.311,196.117Z" transform="translate(-305.754 -55.858)" fill="#fff"/>
  </g>
</svg>
