<svg xmlns="http://www.w3.org/2000/svg" width="42.346" height="46.434" viewBox="0 0 42.346 46.434">
  <g id="carbon_intensity" data-name="carbon intensity" transform="translate(-195.66 -277.592)">
    <path id="Path_59" data-name="Path 59" d="M254.057,297.021c-.069.154-.125.269-.174.388l-1.4,3.31a2.342,2.342,0,0,1-.129.281.472.472,0,0,1-.7.164,2.209,2.209,0,0,1-.264-.225l-4.016-3.632c-.105-.095-.212-.186-.325-.285h-.466c-2.063,0-4.126-.019-6.19.005a6.875,6.875,0,0,1-3.276-12.923,1.174,1.174,0,0,1,.137-.071.475.475,0,0,0,.322-.432,7.188,7.188,0,0,1,10.225-5.1l.263.127c.105-.056.219-.112.33-.174a6.558,6.558,0,0,1,3.949-.825,6.731,6.731,0,0,1,5.795,4.726,4.351,4.351,0,0,1,.151.6.354.354,0,0,0,.281.324,1.15,1.15,0,0,1,.142.059,6.892,6.892,0,0,1,4.193,5.244,7.1,7.1,0,0,1-5.544,8.3,6.634,6.634,0,0,1-1.381.146c-.5-.005-1.006,0-1.509,0C254.341,297.021,254.212,297.021,254.057,297.021Zm-2.3,2.863c.073-.161.132-.288.188-.418q.6-1.423,1.2-2.849c.046-.107.09-.215.146-.317a.476.476,0,0,1,.373-.247,2.053,2.053,0,0,1,.271-.007c.632,0,1.264,0,1.9,0a6.134,6.134,0,0,0,6.129-7.169,6,6,0,0,0-2.876-4.248,4.522,4.522,0,0,0-1.154-.535.658.658,0,0,1-.549-.652,2.453,2.453,0,0,0-.071-.379,5.762,5.762,0,0,0-4.973-4.45,5.582,5.582,0,0,0-3.7.837c-.076.047-.151.1-.227.147a.555.555,0,0,1-.62.014l-.134-.076a5.992,5.992,0,0,0-4.148-.684,6.071,6.071,0,0,0-4.641,3.8,5.318,5.318,0,0,0-.39,1.531.58.58,0,0,1-.407.552,1.367,1.367,0,0,0-.176.08,5.878,5.878,0,0,0-3.346,6.19,5.664,5.664,0,0,0,1.65,3.3,5.744,5.744,0,0,0,3.974,1.741c.154.005.31.007.464.007,2.1,0,4.2.008,6.307-.007a1.215,1.215,0,0,1,.9.352c1.176,1.084,2.366,2.151,3.554,3.222A.9.9,0,0,0,251.758,299.884Z" transform="translate(-31.434 0)" fill="#fff"/>
    <path id="Path_60" data-name="Path 60" d="M210.756,398.179a1.939,1.939,0,0,0,.239.083c1.148.227,2.3.449,3.466.678l.208-.337a2.234,2.234,0,0,1,1.43-1.04,2.274,2.274,0,0,1,2.739,1.665,2.093,2.093,0,0,1,.015,1.033c-.022.086-.034.176-.054.285a2.276,2.276,0,0,0,.18.183q1.847,1.53,3.7,3.056c.058.047.124.088.181.127a2.358,2.358,0,0,1,3.759,1.12,31.62,31.62,0,0,0,3.474-.608c.019-.086.046-.185.061-.283a2.279,2.279,0,0,1,4.491-.053c.02.127.046.252.073.4a9.919,9.919,0,0,0,1.182.307c.4.1.8.2,1.2.295s.774.195,1.164.281.793.21,1.191.273c.071-.129-.012-.193-.056-.263-.359-.581-.723-1.16-1.084-1.74a1.919,1.919,0,0,1-.154-.268.476.476,0,0,1,.51-.678.56.56,0,0,1,.268.136,1.057,1.057,0,0,1,.181.247q.915,1.458,1.826,2.919c.041.066.083.13.117.2a.476.476,0,0,1-.135.623,2.1,2.1,0,0,1-.191.13q-1.395.907-2.79,1.811a2.174,2.174,0,0,1-.232.141.486.486,0,0,1-.513-.82,2.263,2.263,0,0,1,.224-.152c.54-.352,1.081-.7,1.621-1.055.083-.054.158-.12.276-.21-.551-.2-1.081-.281-1.6-.417-.535-.141-1.076-.263-1.614-.393l-1.6-.379c-.081.119-.161.232-.241.346a2.283,2.283,0,0,1-3.8-.1c-.054-.086-.107-.176-.168-.278a6.982,6.982,0,0,0-1.215.181c-.408.058-.811.144-1.216.22s-.808.152-1.22.23a2.361,2.361,0,0,1-1.308,1.653,2.28,2.28,0,0,1-3.032-1.125,2.468,2.468,0,0,1-.058-1.846c-.2-.222-3.481-2.956-3.991-3.318-.142.019-.229.144-.342.222a2.288,2.288,0,0,1-3.549-1.477c-.014-.075-.031-.149-.047-.237a10.986,10.986,0,0,0-1.242-.274c-.427-.1-.859-.173-1.289-.251a11.8,11.8,0,0,0-1.252-.225,2.315,2.315,0,0,1-4.37-.706,1.673,1.673,0,0,0-.235-.056c-.706-.063-1.413-.119-2.119-.181s-1.438-.134-2.156-.2c-.219-.02-.437-.032-.656-.051a1.73,1.73,0,0,1-.229-.036.471.471,0,0,1-.415-.551.466.466,0,0,1,.525-.4c.257.008.515.03.772.054q1.156.1,2.311.207c.693.061,1.387.124,2.08.183.063.005.127.007.213.01.061-.11.12-.22.183-.329a2.29,2.29,0,0,1,4.016-.029,1.916,1.916,0,0,1,.259.8C210.727,397.993,210.74,398.069,210.756,398.179Zm21.659,5.028a1.3,1.3,0,1,0-.022,2.6,1.3,1.3,0,1,0,.022-2.6Zm-23.963-6.3a1.3,1.3,0,1,0,1.308,1.292A1.311,1.311,0,0,0,208.452,396.911Zm15.927,7.453a1.3,1.3,0,0,0-1.292,1.3,1.3,1.3,0,1,0,2.6-.02A1.292,1.292,0,0,0,224.378,404.364Zm-7.752-3.286a1.3,1.3,0,0,0,1.3-1.3,1.3,1.3,0,1,0-1.3,1.3Z" transform="translate(-3.902 -98.3)" fill="#fff"/>
    <path id="Path_61" data-name="Path 61" d="M234.663,442.271v-9.286c0-.117-.005-.232,0-.349a.492.492,0,0,1,.457-.486,1.758,1.758,0,0,1,.232-.005c1.7,0,3.4.008,5.107-.005.484,0,.737.191.7.684-.007.09,0,.181,0,.271v18.378a4.255,4.255,0,0,1-.012.464.47.47,0,0,1-.452.445,2.4,2.4,0,0,1-.271.005H235.4c-.09,0-.181.005-.271,0a.485.485,0,0,1-.464-.478c-.008-.115,0-.232,0-.349Zm5.473,9.1a1.313,1.313,0,0,0,.042-.513q0-8.591,0-17.18c0-.1,0-.207,0-.31a2.057,2.057,0,0,0-.041-.219c-.073-.008-.124-.02-.173-.02q-2.051,0-4.1,0a1.305,1.305,0,0,0-.188.029,1.667,1.667,0,0,0-.034.513q0,8.591,0,17.18c0,.1-.005.207,0,.31a1.51,1.51,0,0,0,.041.208C236.023,451.419,239.751,451.42,240.136,451.373Z" transform="translate(-32.395 -128.368)" fill="#fff"/>
    <path id="Path_62" data-name="Path 62" d="M285.64,465.807v7.081a3.384,3.384,0,0,1-.005.347.494.494,0,0,1-.469.478,2.4,2.4,0,0,1-.271,0h-5.029c-.064,0-.129,0-.193,0a.512.512,0,0,1-.551-.523c-.008-.09-.005-.18-.005-.271V458.642a2.632,2.632,0,0,1,.02-.384.461.461,0,0,1,.4-.412,1.862,1.862,0,0,1,.308-.022q2.533,0,5.068,0a1.53,1.53,0,0,1,.307.022.482.482,0,0,1,.41.451,3.4,3.4,0,0,1,.007.347Zm-1.015-6.966c-.12-.01-.22-.027-.322-.027-.347,0-.7,0-1.043,0-.9,0-1.8,0-2.707,0a.68.68,0,0,0-.412.058,1.4,1.4,0,0,0-.037.5q0,6.4,0,12.8c0,.115,0,.232.005.347a1.317,1.317,0,0,0,.042.191,1.533,1.533,0,0,0,.2.027q2.03,0,4.06,0a1.315,1.315,0,0,0,.227-.041c.01-.107.022-.195.024-.283C284.705,470.027,284.681,459.291,284.625,458.842Z" transform="translate(-69.319 -149.7)" fill="#fff"/>
    <path id="Path_63" data-name="Path 63" d="M374.7,481.532v5.644c0,.115.007.232,0,.347a.491.491,0,0,1-.471.474c-.09.008-.18,0-.271,0h-5.026c-.078,0-.154,0-.232,0a.5.5,0,0,1-.508-.483,2.059,2.059,0,0,1-.007-.271V475.763a1.679,1.679,0,0,1,.024-.346.463.463,0,0,1,.459-.393c.09-.007.18-.005.271-.005h5.026c.09,0,.181,0,.271.005a.472.472,0,0,1,.461.437,2.633,2.633,0,0,1,.007.347Zm-1.011,5.455a1.508,1.508,0,0,0,.037-.478q0-4.988,0-9.976c0-.09,0-.181,0-.271-.005-.074-.022-.147-.036-.229a1.736,1.736,0,0,0-.2-.027q-2.048,0-4.1,0a1.331,1.331,0,0,0-.2.037c-.007.154-.017.293-.017.432q0,5.026,0,10.052c0,.1,0,.207.007.308a.834.834,0,0,0,.042.156c.083.01.158.025.232.027C370.607,487.056,373.329,487.036,373.692,486.987Z" transform="translate(-143.299 -163.984)" fill="#fff"/>
    <path id="Path_64" data-name="Path 64" d="M195.665,479.423v-5.844a3.255,3.255,0,0,1,.012-.386.459.459,0,0,1,.434-.418,2.4,2.4,0,0,1,.271-.007h4.142c.078,0,.156,0,.232,0a.482.482,0,0,1,.473.469c.007.076,0,.154,0,.232,0,3.986-.005,7.972.007,11.958,0,.5-.225.713-.727.706q-2.071-.028-4.14,0c-.486.005-.715-.169-.711-.717C195.675,483.422,195.665,481.423,195.665,479.423Zm4.54,5.7a1.075,1.075,0,0,0,.042-.439q0-5.242,0-10.482c0-.064,0-.129,0-.193s-.022-.146-.036-.227a10.109,10.109,0,0,0-1.172-.024c-.4-.005-.8-.007-1.2,0a7.85,7.85,0,0,0-1.174.032c-.005.154-.015.293-.015.432v10.443c0,.078,0,.156,0,.232s.02.146.03.212C197,485.162,199.766,485.174,200.2,485.12Z" transform="translate(0 -162.113)" fill="#fff"/>
    <path id="Path_65" data-name="Path 65" d="M323.688,489.915v-4.873c0-.1,0-.207,0-.31a.491.491,0,0,1,.456-.49,1.757,1.757,0,0,1,.232-.007c1.7,0,3.4.007,5.106-.005.454,0,.713.151.711.72-.012,3.327-.005,6.652-.007,9.979a2.413,2.413,0,0,1-.008.271.48.48,0,0,1-.452.449,2.111,2.111,0,0,1-.232.005c-1.7,0-3.4-.008-5.106.007-.444,0-.718-.147-.711-.717C323.7,493.267,323.688,491.59,323.688,489.915Zm.991-4.658c0,.169-.01.322-.01.474v8.432c0,.09-.005.181,0,.271a1.951,1.951,0,0,0,.046.215c.071.008.122.022.171.022q2.05,0,4.1,0a1.125,1.125,0,0,0,.207-.042c0-.164.01-.317.01-.469v-8.432c0-.09.005-.181,0-.271a1.683,1.683,0,0,0-.044-.205C328.78,485.207,325.053,485.211,324.679,485.256Z" transform="translate(-106.334 -171.634)" fill="#fff"/>
    <path id="Path_66" data-name="Path 66" d="M412.792,494.355v-4.447c0-.1,0-.207,0-.31.015-.351.171-.507.529-.529.064,0,.129,0,.193,0h4.1a2.33,2.33,0,0,1,.308.012.46.46,0,0,1,.425.427,2.4,2.4,0,0,1,.007.271v9.166c0,.078,0,.154,0,.232a.493.493,0,0,1-.491.495c-.064.005-.129,0-.193,0q-2.089,0-4.177,0c-.559,0-.7-.144-.7-.715Q412.79,496.654,412.792,494.355Zm1.027-4.267a1.126,1.126,0,0,0-.041.466q0,3.811,0,7.623c0,.09-.005.181,0,.271a2.063,2.063,0,0,0,.042.219,1.349,1.349,0,0,0,.171.024q1.568,0,3.134,0a1.359,1.359,0,0,0,.237-.047c0-.142.008-.269.008-.4v-1.973q0-2.881,0-5.765a.81.81,0,0,0-.047-.425,1.207,1.207,0,0,0-.188-.029q-1.586,0-3.173,0A.521.521,0,0,0,413.818,490.088Z" transform="translate(-180.349 -175.653)" fill="#fff"/>
    <path id="Path_67" data-name="Path 67" d="M320.1,315.026a4.211,4.211,0,1,1-4.254,4.159A4.2,4.2,0,0,1,320.1,315.026Zm.015.976a3.233,3.233,0,1,0,3.178,3.346A3.249,3.249,0,0,0,320.117,316Z" transform="translate(-99.829 -31.092)" fill="#fff"/>
    <path id="Path_68" data-name="Path 68" d="M276.854,314.98a4.172,4.172,0,0,1,2.556.861,2.2,2.2,0,0,1,.29.254.492.492,0,0,1,.034.606.466.466,0,0,1-.617.142,2.474,2.474,0,0,1-.279-.207,3.209,3.209,0,0,0-4.423.452,3.064,3.064,0,0,0-.595,3.185,3.232,3.232,0,0,0,5.021,1.474c.073-.054.137-.117.213-.168a.485.485,0,0,1,.613.749,2.256,2.256,0,0,1-.266.225,4.215,4.215,0,1,1-3.2-7.526C276.415,315,276.636,315,276.854,314.98Z" transform="translate(-63.941 -31.055)" fill="#fff"/>
    <path id="Path_69" data-name="Path 69" d="M365.691,352.783c.146.014.244.032.342.032.412,0,.825,0,1.237,0a1.307,1.307,0,0,1,.3.024.474.474,0,0,1-.054.93,2.038,2.038,0,0,1-.269.01H365.2c-.039,0-.078,0-.115,0-.361.029-.612-.213-.564-.647a2,2,0,0,1,1.813-1.814c.076-.008.156,0,.232-.015a.441.441,0,0,0,.383-.42.425.425,0,0,0-.361-.437,5.33,5.33,0,0,0-.771-.007.325.325,0,0,0-.3.264c-.022.073-.024.154-.046.227a.493.493,0,0,1-.468.339.483.483,0,0,1-.44-.322.668.668,0,0,1-.037-.264,1.328,1.328,0,0,1,1.267-1.23c.258-.01.515-.005.774,0a1.423,1.423,0,0,1,.075,2.839,2.5,2.5,0,0,0-.491.081C365.938,352.432,365.872,352.5,365.691,352.783Z" transform="translate(-140.253 -59.681)" fill="#fff"/>
  </g>
</svg>
