<svg xmlns="http://www.w3.org/2000/svg" width="57.688" height="48.198" viewBox="0 0 57.688 48.198">
  <g id="carbon_capture" data-name="carbon capture" transform="translate(-168.81 -270.795)">
    <g id="Group_4" data-name="Group 4" transform="translate(186.534 274.637)">
      <path id="Path_70" data-name="Path 70" d="M302.96,387.164h3.114v3.11H266.11v-3.089h3.326V368.819h7.737v-4h16.875v-5.79h6.745C301.512,368.377,302.232,377.722,302.96,387.164Zm-11.74-12.49v-5.849h-4.057v5.849Zm-15.3,3.152V372H271.86v5.823Zm4.68-9.015v5.854h4.038v-5.854Z" transform="translate(-266.11 -346.917)" fill="#fff"/>
      <path id="Path_71" data-name="Path 71" d="M333.4,292a3.867,3.867,0,0,1,6.582.432,3.425,3.425,0,0,1,2.525-.17,3.363,3.363,0,0,1,1.551,5.354,1.245,1.245,0,0,0-.347,1.19,3.264,3.264,0,0,1,.009.717h-6.9c.059-.538.115-1.063.177-1.631a3.865,3.865,0,0,1-3.11-1.061,4.74,4.74,0,0,1-7.27,1.542,17.556,17.556,0,0,1-2.324.955,5.083,5.083,0,1,1,2.417-8.647c.186.168.306.281.6.132a4.575,4.575,0,0,1,5.972,1.106A.792.792,0,0,0,333.4,292Z" transform="translate(-309.085 -289.278)" fill="#fff"/>
    </g>
    <path id="Path_72" data-name="Path 72" d="M276.44,304.48" transform="translate(-88.112 -27.203)" fill="none" stroke="#fff" stroke-miterlimit="10" stroke-width="2"/>
    <path id="Path_73" data-name="Path 73" d="M276.44,333.04" transform="translate(-88.112 -50.803)" fill="none" stroke="#fff" stroke-miterlimit="10" stroke-width="2"/>
    <line id="Line_22" data-name="Line 22" y1="5.717" x2="6.796" transform="translate(190.773 271.56)" fill="none" stroke="#fff" stroke-miterlimit="10" stroke-width="2"/>
    <line id="Line_23" data-name="Line 23" x2="6.796" y2="5.717" transform="translate(190.773 282.237)" fill="none" stroke="#fff" stroke-miterlimit="10" stroke-width="2"/>
    <path id="Path_74" data-name="Path 74" d="M190.773,304.48H169.81V345.2h4.96V309.44h16" transform="translate(0 -27.203)" fill="none" stroke="#fff" stroke-miterlimit="10" stroke-width="2"/>
  </g>
</svg>
