<svg xmlns="http://www.w3.org/2000/svg" width="46.435" height="46.434" viewBox="0 0 46.435 46.434">
  <g id="efficiency" transform="translate(-88.52 -145.02)">
    <path id="Path_32" data-name="Path 32" d="M111.737,145.02A23.217,23.217,0,1,1,88.52,168.287,23.235,23.235,0,0,1,111.737,145.02ZM98.609,173.032v6.547h.54q11.2,0,22.407.006a.884.884,0,0,0,.746-.336c.845-.987,1.71-1.956,2.6-2.967l.321.442a1.123,1.123,0,0,0-.329-.52c-.171-.167-.379-.3-.536-.476-.7-.8-1.385-1.616-2.1-2.4a.936.936,0,0,0-.606-.275c-1.241-.029-2.484-.025-3.726-.024q-9.413,0-18.827.007Zm18.324-12.183c-1.751,1.751-3.418,3.412-5.072,5.085a.732.732,0,0,0-.166.472c-.015,1.5-.014,3-.012,4.5,0,.169.03.338.049.536h2.515c1.177,0,1.177,0,1.177-1.192v-3.238H117.5c.983,0,.983,0,.983,1v3.427c1.128,0,2.2-.016,3.281.009.38.009.457-.131.453-.476-.016-1.484,0-2.969-.016-4.453a.939.939,0,0,0-.252-.578c-.954-.984-1.932-1.945-2.9-2.92C118.35,162.317,117.66,161.6,116.933,160.85Zm-8.581,7.388c-.918-1.065-1.794-2.094-2.69-3.107a.69.69,0,0,0-.467-.169c-2.064-.011-4.128,0-6.192-.013-.307,0-.429.087-.427.41q.017,2.878,0,5.756c0,.323.12.413.427.411,2.064-.011,4.128,0,6.192-.016a.689.689,0,0,0,.465-.172C106.558,170.328,107.436,169.3,108.352,168.237Zm8.564-10.479-7.871,7.84,1.151,1.247L117.024,160l6.666,6.7,1.142-1.046Q120.844,161.676,116.916,157.759Zm-18.3,5.614a.654.654,0,0,0,.164.055c1.273,0,2.547.013,3.82,0a.559.559,0,0,0,.355-.194c.809-.918,1.6-1.855,2.412-2.768.209-.236.19-.377-.01-.6-.792-.89-1.556-1.809-2.356-2.692a.953.953,0,0,0-.611-.266c-.773-.03-1.547-.011-2.321-.011H98.613C98.614,159.107,98.614,161.241,98.614,163.372Zm23.022-4.442c-.525,0-.988-.011-1.45.006-.159.006-.449.075-.451.126a1.065,1.065,0,0,0,.118.661,10.228,10.228,0,0,0,.94.963c.261.258.527.511.844.82C121.636,160.6,121.636,159.8,121.636,158.93Z" transform="translate(0 0)" fill="#fff"/>
    <path id="Path_33" data-name="Path 33" d="M205.805,454.8c-.026.188-.053.375-.08.569a1.38,1.38,0,0,1-.623-1.525,1.324,1.324,0,0,1,1.182-1.1c.21.007.417.163.628.169a2.5,2.5,0,0,0,.649-.163v1.072c-.3.034-.573.143-.751-.26-.048-.107-.374-.185-.523-.134-.328.114-.453.823-.258,1.209.184.365.51.442.937.221.339-.176.37-.164.667.314a4.378,4.378,0,0,1-.889.405C205.971,455.744,205.782,455.552,205.805,454.8Z" transform="translate(-105.243 -277.88)" fill="#fff"/>
    <path id="Path_34" data-name="Path 34" d="M207.444,371.549a.678.678,0,0,1,.278.9c-.131.408-.5.467-.863.473q-.7.012-1.4,0c-.325,0-.34-.176-.189-.4a2.72,2.72,0,0,0,0-1.935,1.586,1.586,0,0,1-.113-.4,16.115,16.115,0,0,1,1.744.019.933.933,0,0,1,.663.429C207.66,370.848,207.508,371.167,207.444,371.549Zm-1.249.184c.015.272.027.508.04.756.354-.019.693.026.678-.406S206.573,371.7,206.195,371.734Zm.022-.391a1.6,1.6,0,0,0,.517-.185.384.384,0,0,0-.009-.378,1.5,1.5,0,0,0-.508-.158Z" transform="translate(-105.327 -203.315)" fill="#fff"/>
    <path id="Path_35" data-name="Path 35" d="M202.661,289.6H201.52a3.959,3.959,0,0,0,.739-2.752c.455,0,.856-.02,1.253.013a.473.473,0,0,1,.307.275c.169.451.28.923.455,1.372a7.38,7.38,0,0,0,.411.7,1.476,1.476,0,0,1,.076.387h-1.626l.369-.651c-.167-.28-.564-.175-.788-.083C202.13,289.1,203.2,289.268,202.661,289.6Zm.675-1.234c-.089-.3-.166-.555-.243-.813l-.12,0c-.076.258-.15.517-.238.815Z" transform="translate(-102.04 -128.07)" fill="#fff"/>
  </g>
</svg>
