<svg xmlns="http://www.w3.org/2000/svg" width="55.003" height="46.057" viewBox="0 0 55.003 46.057">
  <g id="forestry" transform="translate(-197.2 -268.265)">
    <path id="Path_112" data-name="Path 112" d="M220.175,292.857a4.947,4.947,0,0,1-2.639,9.076,4.955,4.955,0,0,1-8.808,3.029,4.93,4.93,0,1,1-7.667-6.194c-2.573-.8-4.037-2.506-3.845-5.241.169-2.4,1.657-3.835,3.989-4.448a11.8,11.8,0,0,1,.012-1.7,4.782,4.782,0,0,1,4.79-4.117.978.978,0,0,0,.953-.48,4.845,4.845,0,0,1,5.1-1.966,4.954,4.954,0,0,1,3.731,3.96c.046.26-.017.615.133.765s.5.084.76.135a4.887,4.887,0,0,1,3.553,7.023A1.7,1.7,0,0,0,220.175,292.857Zm-9.344,5.9a1.55,1.55,0,0,1-.171.383c-.092.1-.28.14-.33.251a1.964,1.964,0,0,0-.174.7.38.38,0,0,0,.256.277,5.334,5.334,0,0,0,.827-.034c0-.485.012-.95,0-1.413a.5.5,0,0,0-.584-.555c-.369.017-.507.188-.49.714C210.371,298.978,210.542,298.894,210.832,298.757Z" transform="translate(0 -9.43)" fill="#fff"/>
    <path id="Path_113" data-name="Path 113" d="M354.143,292.8a4.953,4.953,0,0,1-2.643,9.086,4.942,4.942,0,0,1-8.808,3,4.862,4.862,0,0,1-4.768,1.852,4.751,4.751,0,0,1-3.413-2.383,6.236,6.236,0,0,0,3.217-4.209c.941-.429,1.828-.835,2.737-1.247a3.333,3.333,0,0,1-.367.318.676.676,0,0,0-.306.842.47.47,0,0,0,.326.256,4.3,4.3,0,0,0,.753-.034c0-.49-.012-1.006.007-1.519a.853.853,0,0,1,.152-.509,6.181,6.181,0,0,0-.017-8.622.582.582,0,0,1-.14-.458,6.125,6.125,0,0,0-1.266-5.755c-.041-.051-.075-.106-.217-.314,1.066.393,1.416-.309,1.932-.868a4.614,4.614,0,0,1,5.135-1.336,4.678,4.678,0,0,1,3.331,4.185c.017.137.031.277.048.446a4.94,4.94,0,0,1,4.308,7.272Zm-1.088-5.079c.041.012.08.024.121.034a1.517,1.517,0,0,1-.181.318c-.094.1-.277.145-.328.256a1.771,1.771,0,0,0-.159.666.389.389,0,0,0,.251.285,5.536,5.536,0,0,0,.835-.041c0-.492.022-.984-.007-1.474a.508.508,0,0,0-.654-.475c-.347.065-.5.265-.4.726C352.739,287.893,352.9,287.8,353.055,287.717Z" transform="translate(-104.193 -9.367)" fill="#fff"/>
    <path id="Path_114" data-name="Path 114" d="M284.635,292.508a4.983,4.983,0,0,1-5.067,1.811.685.685,0,0,1,.584-.8,6.146,6.146,0,0,0,2.87-10.156.649.649,0,0,1-.191-.7,6.137,6.137,0,0,0-4.457-7.564.5.5,0,0,1-.432-.432,1.985,1.985,0,0,0-.2-.644.869.869,0,0,1,.152-1.073,4.822,4.822,0,0,1,4.322-2.125.489.489,0,0,0,.494-.275,4.734,4.734,0,0,1,4.915-2.212,4.656,4.656,0,0,1,3.888,3.353,12.773,12.773,0,0,1,.3,1.457,4.951,4.951,0,0,1,4.25,7.3,5.114,5.114,0,0,1,1.751,1.983,4.882,4.882,0,0,1-3.965,7.016c-.28.024-.446.051-.48.415a4.626,4.626,0,0,1-3.254,4.235,4.712,4.712,0,0,1-5.227-1.3C284.821,292.711,284.746,292.626,284.635,292.508Zm.35-12.636c0-.487.017-.977,0-1.466a.5.5,0,0,0-.632-.492c-.347.048-.521.236-.432.7l.581-.277a.482.482,0,0,1-.125.374c-.084.089-.263.123-.3.219a2.374,2.374,0,0,0-.166.74c0,.08.178.232.287.241A5.912,5.912,0,0,0,284.985,279.872Z" transform="translate(-61.021 0)" fill="#fff"/>
    <path id="Path_115" data-name="Path 115" d="M227.154,391.228c1.65.089,3.43.152,5.2.285a62.886,62.886,0,0,1,13.272,2.1,10.622,10.622,0,0,1,3.668,1.693,2.839,2.839,0,0,1,.574.615.412.412,0,0,1-.311.685,2.219,2.219,0,0,1-.381.017H199.018c-.282,0-.567.01-.847-.017a.417.417,0,0,1-.328-.7,4.075,4.075,0,0,1,1.688-1.31A23.54,23.54,0,0,1,205,392.865c.412-.092.83-.166,1.245-.251.342-.07.509.039.48.415-.046.649-.06,1.3-.109,1.946-.027.371.125.5.49.5q3.1-.014,6.191,0c.371,0,.5-.145.475-.511-.065-.917-.1-1.833-.159-2.75-.031-.518.022-.593.547-.617q4.193-.185,8.384-.364c.07,0,.14-.012.275-.027.125-2.149.253-4.3.381-6.473.176-.019.338-.036.521-.058q0-1.183,0-2.359a.25.25,0,0,0-.048-.159c-.437-.434-.256-.967-.234-1.469.048-1.114.1-2.231.193-3.343a1.875,1.875,0,0,1,.268-.617l2.687,1.276c.063,1.049.135,2.2.2,3.357l.449,7.766c.034.579.075,1.158.084,1.737C227.326,390.994,227.205,391.124,227.154,391.228Zm-2.414-6.546v-2.325l.166,0c.154.765-.012,1.558.1,2.315h.622v-.492c0-.521-.007-1.044.01-1.565,0-.089.121-.171.186-.258a1.047,1.047,0,0,1,.157.253,1.43,1.43,0,0,1,.007.338v1.732h.632c0-.842.029-1.657-.012-2.47-.024-.494-.408-.625-.808-.328-.065.048-.13.094-.193.14-.335-.371-.473-.381-.748-.166-.326-.046-.555-.077-.791-.109v2.94Zm12.354,10.576c0-.473,0-.962,0-1.452,0-.376-.244-.526-.581-.511-.369.014-.564.21-.507.685.147-.051.27-.092.393-.137.075-.027.147-.063.222-.092-.019.1-.01.222-.068.285-.113.121-.326.176-.388.309a1.751,1.751,0,0,0-.152.7c0,.087.171.244.275.253A6.782,6.782,0,0,0,237.094,395.258Z" transform="translate(-0.409 -82.304)" fill="#fff"/>
    <path id="Path_116" data-name="Path 116" d="M241.3,389.54c.8.338,1.6.666,2.395,1.02a.466.466,0,0,1,.21.342c.123,1.888.232,3.779.338,5.67q.188,3.343.371,6.686c.036.661.01.69-.719.632-.06-.417-.041-.955-.716-.871-.338.041-.49.248-.42.7l.615-.285c-.024.121-.01.27-.072.318a.774.774,0,0,1-.422.157c-.777.014-1.553,0-2.332.01-.374,0-.4-.219-.381-.506.1-1.819.2-3.64.3-5.46.152-2.636.318-5.275.461-7.911C240.954,389.726,241.06,389.538,241.3,389.54Z" transform="translate(-32.602 -92.025)" fill="#fff"/>
    <path id="Path_117" data-name="Path 117" d="M368.522,400.982l-4.122-.654c0-.123-.007-.27,0-.417.2-3.381.388-6.763.6-10.144.012-.183.2-.355.239-.427.907.383,1.72.719,2.525,1.076a.429.429,0,0,1,.181.318c.118,1.845.224,3.69.333,5.538q.123,2.069.239,4.141C368.531,400.594,368.522,400.775,368.522,400.982Z" transform="translate(-126.871 -91.873)" fill="#fff"/>
    <path id="Path_118" data-name="Path 118" d="M251.587,354.35c-.289.14-.461.222-.671.321-.017-.526.121-.7.49-.714a.5.5,0,0,1,.584.555c.014.463,0,.929,0,1.413a5.353,5.353,0,0,1-.827.034.384.384,0,0,1-.256-.277,1.964,1.964,0,0,1,.174-.7c.051-.111.239-.15.33-.251A1.394,1.394,0,0,0,251.587,354.35Z" transform="translate(-40.756 -65.023)" fill="#fff"/>
    <path id="Path_119" data-name="Path 119" d="M409.661,308.674c-.157.089-.316.178-.521.292-.1-.463.051-.661.4-.726a.51.51,0,0,1,.654.475c.027.49.007.982.007,1.474a5.554,5.554,0,0,1-.834.041.385.385,0,0,1-.251-.285,1.773,1.773,0,0,1,.159-.666c.051-.111.232-.154.328-.256a1.414,1.414,0,0,0,.181-.318Z" transform="translate(-160.799 -30.323)" fill="#fff"/>
    <path id="Path_120" data-name="Path 120" d="M304.728,310.192a5.519,5.519,0,0,1-.794.041c-.109-.01-.289-.162-.287-.241a2.391,2.391,0,0,1,.166-.74c.039-.1.215-.128.3-.219a.482.482,0,0,0,.125-.374l-.581.277c-.089-.465.084-.654.432-.7a.5.5,0,0,1,.632.492C304.745,309.215,304.728,309.705,304.728,310.192Z" transform="translate(-80.764 -30.32)" fill="#fff"/>
    <path id="Path_121" data-name="Path 121" d="M307.581,400.346h-.671v-2.94c.236.031.465.063.791.109.273-.215.412-.205.748.166.063-.046.128-.092.193-.14.4-.3.784-.166.808.328.041.813.012,1.628.012,2.47h-.632v-1.732a1.432,1.432,0,0,0-.007-.338.977.977,0,0,0-.157-.253c-.065.087-.183.171-.186.258-.019.521-.01,1.044-.01,1.565v.492h-.622c-.109-.76.058-1.553-.1-2.315l-.166,0C307.581,398.778,307.581,399.538,307.581,400.346Z" transform="translate(-83.25 -97.969)" fill="#fff"/>
    <path id="Path_122" data-name="Path 122" d="M357.446,447.355a5.2,5.2,0,0,1-.808.039c-.1-.01-.275-.166-.275-.253a1.751,1.751,0,0,1,.152-.7c.065-.133.275-.188.388-.309.058-.06.048-.188.068-.285-.075.031-.147.065-.222.092-.123.046-.248.087-.393.137-.06-.475.137-.671.506-.685.338-.014.576.135.581.511C357.451,446.393,357.446,446.882,357.446,447.355Z" transform="translate(-120.762 -134.402)" fill="#fff"/>
  </g>
</svg>
