<svg xmlns="http://www.w3.org/2000/svg" width="62.75" height="46.434" viewBox="0 0 62.75 46.434">
  <g id="heating" transform="translate(-178.4 -293.129)">
    <path id="Path_36" data-name="Path 36" d="M200.012,308.671h.336m2.719.331h-.09m-3.052.1c0-.559-.008-1.014.008-1.472,0-.066.119-.143.2-.188q3.141-1.787,6.285-3.569c.479-.27.953-.551,1.438-.81a.4.4,0,0,0,.238-.408c-.008-1.972-.005-3.944-.005-5.914,0-.736.228-.958.972-.958h4.649c.6,0,.855.262.855.855v2.6c.294-.161.548-.3.8-.442q4.853-2.752,9.7-5.512a.954.954,0,0,1,1.051,0q7.664,4.364,15.344,8.707c.135.077.233.146.238.326.005.151.109.222.281.233a1.566,1.566,0,0,1,.664.124q4.372,2.458,8.726,4.943a4.809,4.809,0,0,1,.466.347c-.209.085-.363.146-.54.22a.325.325,0,0,0-.474-.074c-.026.019-.1-.042-.151-.048-.116-.008-.233,0-.384,0,0,.275.005.529,0,.784a.49.49,0,0,1-.082.172.636.636,0,0,1-.085-.169,2.377,2.377,0,0,1-.008-.275c-.029-.394-.2-.556-.574-.54-.355.016-.506.2-.5.641.119.008.241.016.323.019.09-.1.156-.177.222-.251.029.029.093.074.087.085a.784.784,0,0,1-.177.278,4.778,4.778,0,0,1-.537.286v-1.472h-.426v1.006a.675.675,0,0,1,0,.164,1.778,1.778,0,0,1-.085.225,1.679,1.679,0,0,1-.085-.228,1.513,1.513,0,0,1-.008-.22c-.029-.394-.2-.556-.577-.537-.357.019-.506.2-.492.643.119.005.241.013.318.016.1-.106.161-.177.23-.249.029.032.087.077.082.09a.764.764,0,0,1-.159.262,1.012,1.012,0,0,1-.7.238c-.889-.019-1.779-.008-2.668-.008-.1,0-.2.008-.318.013v20.435l-.3.061c0,.543-.016,1.088.013,1.633.008.13.169.251.275.4-.04.021-.111.037-.132.079a.5.5,0,0,0-.074.262c0,.045.106.119.164.116a1.915,1.915,0,0,0,.8-.167,1.864,1.864,0,0,1,1.112.032c.312.079.373.41.373.725,0,1.448.005,2.9.005,4.347a.718.718,0,0,1-.792.8c-.474.005-.948,0-1.448,0,0,.357,0,.678,0,1a.721.721,0,0,1-.815.81H208c-.612,0-.852-.249-.852-.876V316.1c-.106-.005-.193-.013-.281-.013-.421,0-.844.005-1.265-.008a.674.674,0,0,1-.7-.7c-.008-1.522-.011-3.044,0-4.567a.684.684,0,0,1,.725-.7c.492-.008.987,0,1.5,0v-1.088h-2.949m38.73,20.594c-.053-.1-.283-.119-.283-.405q.02-10.372.011-20.744c0-.593.259-.847.858-.847h4.953c-.1-.077-.124-.1-.154-.116q-1.124-.639-2.245-1.273-5.389-3.058-10.78-6.113-4.745-2.692-9.485-5.387a.318.318,0,0,0-.371,0c-1.424.815-2.851,1.62-4.278,2.43q-3.407,1.934-6.812,3.865a.722.722,0,0,1-1.17-.683c0-.8,0-1.6,0-2.393v-.72h-3.64v.344c0,1.843-.011,3.688.008,5.53a1,1,0,0,1-.58.987c-2.015,1.125-4.019,2.269-6.028,3.41a.965.965,0,0,0-.135.124h.212q2.379,0,4.76,0a.718.718,0,0,1,.81.789q.008,1.183,0,2.367a.7.7,0,0,1-.757.752c-.413.005-.826.008-1.239,0-.191-.005-.251.058-.249.252.008.908,0,1.816.005,2.724a1.914,1.914,0,0,0,.026.207c.334,0,.654-.011.974.005a1.479,1.479,0,0,1,.506.1,1.225,1.225,0,0,1,.736,1.263q0,10.825,0,21.652v.455h.447c2.549,0,5.1,0,7.648.005.127,0,.254.079.384.093a3.044,3.044,0,0,0,.6.024c.148-.011.291-.116.437-.116q7.565-.012,15.132,0c.109,0,.214.079.326.09a3.994,3.994,0,0,0,.641.021c.109-.005.214-.109.323-.109,2.631-.008,5.263-.005,7.9-.008.077,0,.156-.011.251-.019,0-.376-.008-.723,0-1.07a.682.682,0,0,1,.688-.707c.156-.008.312,0,.469,0h1.064V333.2h-.352c-.23,0-.458.005-.688,0-.85-.021-1.348-.781-1.146-1.75l.275-.037c.005-.1.011-.193.013-.283,0-.331-.005-.662.008-.99,0-.079.074-.156.114-.233a1.037,1.037,0,0,1,.1.246,1.935,1.935,0,0,1,.005.328v.935h.432c0-.484.013-.95-.008-1.416-.008-.159-.064-.386-.175-.447C243.322,329.479,243.116,329.577,242.909,329.609Zm-33.5-27.1c0-.323.016-.641-.005-.958a.328.328,0,0,0-.418-.312c-.225.037-.336.159-.281.434.087-.019.167-.029.246-.053a.9.9,0,0,0,.151-.077.669.669,0,0,1-.082.2c-.071.079-.212.119-.246.206a1.2,1.2,0,0,0-.058.466c0,.048.114.124.18.13A4.11,4.11,0,0,0,209.407,302.506Z" transform="translate(-15.825)" fill="#fff"/>
    <path id="Path_37" data-name="Path 37" d="M180.738,365.357h6.123c.056,0,.127-.021.161.008.1.077.251.172.249.259s-.14.2-.244.267c-.069.042-.177.016-.27.016q-2.859,0-5.721,0a.552.552,0,0,0-.286.056.905.905,0,0,1,.307.117c.093.085.2.228.193.331-.019.175-.175.238-.357.183-.762-.228-1.528-.447-2.285-.691a.357.357,0,0,1-.209-.27.369.369,0,0,1,.209-.265c.749-.244,1.5-.466,2.258-.691.175-.05.341-.034.394.177s-.071.3-.251.355c-.1.026-.188.058-.281.087Z" transform="translate(0 -52.587)" fill="#fff"/>
    <path id="Path_38" data-name="Path 38" d="M384.2,448.832a1.006,1.006,0,0,1,.339.119.512.512,0,0,1,.191.334c-.008.169-.169.236-.331.188-.781-.23-1.559-.463-2.335-.712a.272.272,0,0,1-.005-.514c.776-.246,1.554-.484,2.338-.7.093-.026.23.109.344.169a1.491,1.491,0,0,1-.2.334c-.071.069-.2.079-.3.172h5.991c.093,0,.2-.029.27.011.106.061.241.161.259.265.026.156-.09.27-.27.273h-.22q-2.943,0-5.882,0c-.058,0-.119.005-.177.011C384.207,448.8,384.2,448.816,384.2,448.832Z" transform="translate(-149.612 -113.539)" fill="#fff"/>
    <path id="Path_39" data-name="Path 39" d="M209.106,351.3a.548.548,0,0,1-.016.188.165.165,0,0,1-.116.074.119.119,0,0,1-.09-.069.378.378,0,0,1-.008-.188,2.875,2.875,0,0,1,.111-.32c.053.1.109.193.161.291A.172.172,0,0,0,209.106,351.3Z" transform="translate(-22.402 -42.536)" fill="#fff"/>
    <path id="Path_40" data-name="Path 40" d="M206.811,351c0,.169,0,.339,0,.508,0,.018-.05.053-.077.053s-.071-.037-.071-.058c0-.169.011-.336.016-.506Z" transform="translate(-20.779 -42.551)" fill="#fff"/>
    <path id="Path_41" data-name="Path 41" d="M233.755,324.994a3.62,3.62,0,0,1-.514.032c-.066,0-.177-.082-.18-.13a1.2,1.2,0,0,1,.058-.466c.034-.087.172-.127.246-.206a.666.666,0,0,0,.082-.2,1.158,1.158,0,0,1-.151.077c-.077.024-.159.034-.246.053-.056-.275.058-.4.281-.434a.328.328,0,0,1,.418.312C233.771,324.354,233.755,324.671,233.755,324.994Z" transform="translate(-40.173 -22.489)" fill="#fff"/>
    <path id="Path_42" data-name="Path 42" d="M272.289,379.972a1.889,1.889,0,0,0-.259,1.488,6,6,0,0,1-5.488-.331,5.56,5.56,0,0,0,5.676.8c.048.064.106.138.177.236a3.331,3.331,0,0,1-1.4.484A6.268,6.268,0,0,1,265.829,381a2.077,2.077,0,0,1-.619-1.485,6.4,6.4,0,0,1,1.051-3.913,12.347,12.347,0,0,1,2.068-2.539c0,.18.005.32,0,.461a7.355,7.355,0,0,0,.508,3.177,5.7,5.7,0,0,0,3.132,3.116c.1.042.2.085.3.13C272.275,379.943,272.278,379.954,272.289,379.972Z" transform="translate(-63.815 -58.771)" fill="#fff"/>
    <path id="Path_43" data-name="Path 43" d="M276.137,408.737a5.88,5.88,0,0,1-.363,5.475,5.494,5.494,0,0,0,.826-5.665l.238-.167c1.056,1.578.545,4.7-1.04,6.4a.424.424,0,0,0-.559-.14c-.1.056-.146.207-.217.315l.09.1c.114-.056.228-.109.339-.164l.056.024a.987.987,0,0,1-.138.214,2.015,2.015,0,0,1-1.321.45,6.5,6.5,0,0,1-3.7-1.022,12.661,12.661,0,0,1-2.412-1.9c-.056-.056-.106-.119-.183-.206.328,0,.614,0,.9,0a6.476,6.476,0,0,0,3.968-1.226,5.834,5.834,0,0,0,1.893-2.481c.029-.069.053-.135.082-.2a.473.473,0,0,1,.045-.053A1.961,1.961,0,0,0,276.137,408.737Z" transform="translate(-65.696 -84.741)" fill="#fff"/>
    <path id="Path_44" data-name="Path 44" d="M306.66,355.15c-.13.545-.365.643-.818.376-.614-.363-1.228-.728-1.848-1.085-.217-.124-.379-.275-.3-.545.069-.254.275-.31.516-.318q1.084-.048,2.168-.109c.22-.013.424-.005.543.225a.447.447,0,0,1-.143.564c.537.262,1.088.492,1.6.786a12.729,12.729,0,0,1,6.589,9.663,12.537,12.537,0,0,1-.672,6.139c-.016.042-.032.085-.05.127a.425.425,0,0,1-.564.289.43.43,0,0,1-.222-.575c.143-.453.307-.9.424-1.363a12.116,12.116,0,0,0-7.217-14.174Z" transform="translate(-92.108 -44.364)" fill="#fff"/>
    <path id="Path_45" data-name="Path 45" d="M277.121,432.492c-.392-.318-.368-.614.064-.855.646-.363,1.3-.723,1.94-1.093a.435.435,0,0,1,.577.026.445.445,0,0,1,.034.58c-.339.651-.672,1.3-1,1.959-.1.2-.22.373-.463.363s-.365-.18-.426-.432l-.492.363a12.96,12.96,0,0,1-17.626-2.131,1.3,1.3,0,0,1-.119-.151.41.41,0,0,1,.053-.569.419.419,0,0,1,.593.042c.326.347.627.717.972,1.048a12.11,12.11,0,0,0,15.733,1.011c.05-.037.1-.079.148-.119C277.108,432.529,277.11,432.518,277.121,432.492Z" transform="translate(-59.646 -100.966)" fill="#fff"/>
    <path id="Path_46" data-name="Path 46" d="M248.507,368.439c.54-.156.723-.013.717.556-.008.715-.016,1.43-.016,2.144,0,.233-.056.426-.3.5s-.41-.058-.543-.265c-.381-.6-.773-1.2-1.162-1.8-.122-.188-.275-.4-.1-.6a1.865,1.865,0,0,1,.559-.286c-.032-.434-.09-.953-.109-1.472a12.922,12.922,0,0,1,10.033-13.091c.259-.061.521-.1.784-.148.312-.053.522.071.566.326s-.124.447-.429.5a11.6,11.6,0,0,0-4.577,1.768,11.952,11.952,0,0,0-5.39,8.2,11.368,11.368,0,0,0-.061,3.532A.577.577,0,0,0,248.507,368.439Z" transform="translate(-50.458 -44.731)" fill="#fff"/>
    <path id="Path_47" data-name="Path 47" d="M273.444,333.4a2.383,2.383,0,0,1,1.52.633,1.923,1.923,0,0,0,1.9.413,3.143,3.143,0,0,0,.871-.506,2.483,2.483,0,0,1,2.761-.257,5.39,5.39,0,0,1,.7.479,1.922,1.922,0,0,0,2.306-.005,3.162,3.162,0,0,1,1.342-.715,3.838,3.838,0,0,1,.49-.045.254.254,0,0,1,.3.249.246.246,0,0,1-.262.289,2.346,2.346,0,0,0-1.488.622,2.442,2.442,0,0,1-3.121-.032,2.087,2.087,0,0,0-1.959-.514,2.864,2.864,0,0,0-.86.466,2.5,2.5,0,0,1-3.3,0,2.063,2.063,0,0,0-1.236-.535c-.207,0-.424-.04-.413-.291C273,333.383,273.238,333.388,273.444,333.4Z" transform="translate(-69.548 -29.598)" fill="#fff"/>
    <path id="Path_48" data-name="Path 48" d="M282.361,319.8a2.377,2.377,0,0,1-1.641-.6,2.073,2.073,0,0,0-1.7-.519,2.264,2.264,0,0,0-1.067.532,2.491,2.491,0,0,1-2.581.41,3.462,3.462,0,0,1-.789-.49,2.067,2.067,0,0,0-1.234-.477c-.2,0-.336-.079-.328-.281s.169-.278.371-.27a2.418,2.418,0,0,1,1.506.585,1.973,1.973,0,0,0,1.962.482,3.961,3.961,0,0,0,.985-.58,2.47,2.47,0,0,1,2.475-.289,3.544,3.544,0,0,1,.741.463,1.951,1.951,0,0,0,2.616-.008,2.719,2.719,0,0,1,1.514-.649c.064,0,.148-.037.188-.008.1.079.238.175.262.283.013.066-.154.246-.244.249a2.418,2.418,0,0,0-1.485.638A2.282,2.282,0,0,1,282.361,319.8Z" transform="translate(-69.57 -18.358)" fill="#fff"/>
    <path id="Path_49" data-name="Path 49" d="M295.134,399.069a1.432,1.432,0,1,1-1.435-1.419A1.414,1.414,0,0,1,295.134,399.069Z" transform="translate(-83.725 -76.851)" fill="#fff"/>
    <path id="Path_50" data-name="Path 50" d="M298.143,325.8a2.706,2.706,0,0,1,1.363.6,3.193,3.193,0,0,0,.916.469,1.877,1.877,0,0,0,1.739-.447,2.532,2.532,0,0,1,1.432-.638c.09-.008.2-.037.27,0,.106.058.249.164.251.254s-.148.265-.23.265a2.56,2.56,0,0,0-1.557.672,2.5,2.5,0,0,1-2.973.018c-.352-.238-.741-.418-1.109-.633a.215.215,0,0,1-.1-.138C298.135,326.09,298.143,325.955,298.143,325.8Z" transform="translate(-88.042 -23.995)" fill="#fff"/>
    <path id="Path_51" data-name="Path 51" d="M279.076,325.829c-.069.175-.135.347-.188.49-.387.252-.768.5-1.144.744a2.467,2.467,0,0,1-2.923-.045,2.546,2.546,0,0,0-1.554-.667.227.227,0,0,1-.244-.291.423.423,0,0,1,.3-.236,2.567,2.567,0,0,1,1.636.606,3.007,3.007,0,0,0,.94.479,1.836,1.836,0,0,0,1.692-.421,2.638,2.638,0,0,1,1.366-.654C279,325.832,279.047,325.832,279.076,325.829Z" transform="translate(-69.565 -24.039)" fill="#fff"/>
    <g id="Group_2" data-name="Group 2" transform="translate(211.38 320.517)">
      <path id="Path_52" data-name="Path 52" d="M309.94,398.927a3.607,3.607,0,0,1,.183,2.073,8.6,8.6,0,0,1-2.271,4.4c-.244.283-.508.548-.818.882.191-3.222-.847-5.676-3.955-6.947a1.941,1.941,0,0,0,.273-1.5,5.888,5.888,0,0,1,5.451.341,5.474,5.474,0,0,0-5.631-.8c-.056-.074-.117-.148-.191-.246a3.654,3.654,0,0,1,1.639-.519,6.308,6.308,0,0,1,4.919,1.686,2.836,2.836,0,0,1,.413.633,1.261,1.261,0,0,0-.252-.154c-.291-.1-.49.082-.439.429.082-.029.156-.053.233-.082.048-.019.1-.042.14-.063-.016.061-.011.14-.048.18-.066.071-.2.1-.233.183a1.347,1.347,0,0,0-.111.479c0,.053.114.156.18.161a3.492,3.492,0,0,0,.522-.021C309.94,399.671,309.94,399.3,309.94,398.927Z" transform="translate(-302.98 -396.586)" fill="#fff"/>
      <path id="Path_53" data-name="Path 53" d="M327.321,404.947v1.117a3.487,3.487,0,0,1-.522.021c-.069-.005-.183-.109-.18-.161a1.363,1.363,0,0,1,.111-.479c.034-.079.167-.111.233-.183.037-.04.034-.119.048-.18-.048.021-.093.045-.14.064-.074.029-.151.053-.233.082-.05-.347.146-.524.439-.429a1.188,1.188,0,0,1,.252.154S327.321,404.947,327.321,404.947Z" transform="translate(-320.362 -402.606)" fill="#fff"/>
    </g>
    <g id="Group_3" data-name="Group 3" transform="translate(208.256 313.63)">
      <path id="Path_54" data-name="Path 54" d="M296.025,377.675a2.057,2.057,0,0,0-1.379-.3c-.064.008-.175-.109-.212-.188a4.9,4.9,0,0,1-.408-2.412c.021-.273.074-.545.111-.8l.559.127c0-.461-.011-.871,0-1.281.011-.286.056-.572.079-.8l-.185.244-.275-.135a2.582,2.582,0,0,1,2.017-1.517,6.045,6.045,0,0,1,3.373.667,11.743,11.743,0,0,1,3.15,2.361.5.5,0,0,1,.05.085C299.763,373.537,297.312,374.553,296.025,377.675Zm.522-3.627c0-.553.019-1.093-.008-1.628-.013-.291-.246-.376-.5-.22-.053.032-.1.071-.154.106-.151-.185-.307-.251-.5-.085a.109.109,0,0,1-.082.008c-.135-.032-.267-.069-.421-.109v1.925h.45v-1.5l.124,0v1.493h.434c.005-.1.011-.167.011-.241,0-.365,0-.733.005-1.1,0-.053.069-.106.106-.159a.505.505,0,0,1,.111.154.758.758,0,0,1,.008.22v1.133Zm.794-.045c.04.183-.061.262-.27.27-.318.013-.326.032-.252.4.154,0,.318.005.479,0,.326-.011.447-.119.471-.445.019-.254.008-.514.008-.77v-1.284h-.432v.315c0,.339.005.678-.005,1.017,0,.061-.077.117-.117.177-.034-.056-.1-.109-.1-.167a4.045,4.045,0,0,1-.005-.439v-.9h-.429c0,.5-.013.987.008,1.469a.534.534,0,0,0,.169.4C296.978,374.1,297.166,374.021,297.341,374Z" transform="translate(-293.26 -370.572)" fill="#fff"/>
      <path id="Path_55" data-name="Path 55" d="M291.493,382.41a.929.929,0,0,1,.13.789,4.66,4.66,0,0,0,.363,3.092c-.077.056-.154.114-.267.2A5.142,5.142,0,0,1,291.493,382.41Z" transform="translate(-291.177 -379.276)" fill="#fff"/>
      <path id="Path_56" data-name="Path 56" d="M293.23,378.522c.087-.156.169-.312.267-.463.018-.029.1-.021.146-.029.005.074.045.18.008.217a3.45,3.45,0,0,1-.373.3A.17.17,0,0,1,293.23,378.522Z" transform="translate(-292.687 -376.056)" fill="#fff"/>
      <path id="Path_57" data-name="Path 57" d="M298.987,378.347h-.408v-1.133a.759.759,0,0,0-.008-.22.5.5,0,0,0-.111-.154c-.037.053-.106.106-.106.159-.011.365-.005.733-.005,1.1,0,.072-.005.146-.011.241H297.9v-1.493l-.124,0v1.5h-.45V376.42c.154.04.286.077.421.109.026.005.066.008.082-.008.193-.167.349-.1.5.085.05-.037.1-.074.154-.106.246-.156.479-.071.5.22C299.006,377.257,298.987,377.794,298.987,378.347Z" transform="translate(-295.701 -374.872)" fill="#fff"/>
      <path id="Path_58" data-name="Path 58" d="M304.77,378.442c-.177.019-.363.1-.474.034a.534.534,0,0,1-.169-.4c-.021-.482-.008-.966-.008-1.469h.429v.9c0,.146-.008.294.005.439.005.058.066.111.1.167.04-.058.114-.116.116-.177.011-.339.005-.678.005-1.017v-.315h.432v1.284c0,.257.008.514-.008.77-.021.326-.146.434-.471.445-.161.005-.326,0-.479,0-.071-.368-.064-.384.251-.4C304.712,378.7,304.81,378.622,304.77,378.442Z" transform="translate(-300.69 -375.012)" fill="#fff"/>
    </g>
  </g>
</svg>
