<svg xmlns="http://www.w3.org/2000/svg" width="53.781" height="46.435" viewBox="0 0 53.781 46.435">
  <g id="Group_1" data-name="Group 1" transform="translate(-776.081 -1360)">
    <path id="Path_10" data-name="Path 10" d="M140.771,422.4c-.068-.1-.118-.26-.208-.29-.306-.1-.415,0-.415.329q0,3.638,0,7.278a2.277,2.277,0,0,1-.787,1.774,2.121,2.121,0,0,1-1.383.567c-.137,0-.272.012-.455.021,0,.29,0,.562,0,.834,0,.435-.167.6-.59.6-.691,0-1.383,0-2.073,0-.4,0-.533-.138-.547-.533,0-.107,0-.213-.007-.318-.012-.593-.012-.593-.589-.593q-3.159,0-6.316,0A2.415,2.415,0,0,1,127,432c-.537-.549-1.071-1.1-1.614-1.648-.394-.4-.8-.78-1.2-1.17a1.728,1.728,0,0,1,.008-.189,1.09,1.09,0,0,0-1.153-1.358,4.091,4.091,0,0,1-.462-.055l-3.3-3.314a1.794,1.794,0,0,1-.081-.362c-.01-.436,0-.873-.005-1.309,0-.523,0-.523-.6-.459,0,.2.008.406,0,.612a.51.51,0,0,1-.586.552c-.394,0-.787.005-1.181,0a.537.537,0,0,1-.593-.593q-.008-1.373,0-2.745a.541.541,0,0,1,.609-.609c.4-.005.809,0,1.212,0a.491.491,0,0,1,.54.5c.015.21,0,.422,0,.626.525.164.6.109.6-.4,0-2.405-.005-4.812,0-7.217a2.207,2.207,0,0,1,1.572-2.193,2.741,2.741,0,0,1,.876-.126c2.255-.01,4.51-.005,6.764-.005q4.688,0,9.375,0a2.276,2.276,0,0,1,1.99,1.063,2.2,2.2,0,0,1,.37,1.261c-.007,2.416,0,4.834,0,7.25v.4h.588c0-.208-.005-.4,0-.585a.522.522,0,0,1,.568-.579c.425-.007.851-.005,1.276,0a.471.471,0,0,1,.5.493q.012,1.47,0,2.938a.483.483,0,0,1-.521.514c-.316,0-.631-.033-.947-.049Q141.195,422.82,140.771,422.4Zm-3.687-8.085a1.394,1.394,0,0,1-.316.09q-3.011.006-6.024,0c-.608,0-.87.265-.87.876q0,4.21,0,8.419c0,.638.251.892.88.894q3.54,0,7.08,0c.6,0,.85-.249.85-.854q0-4.18,0-8.358c0-.769-.2-.962-.985-.98A4.512,4.512,0,0,1,137.084,414.316ZM120.658,419.5c0,1.416,0,2.831,0,4.247,0,.6.243.849.851.849q3.556,0,7.112,0c.586,0,.85-.275.851-.865,0-.549,0-1.1,0-1.647q0-3.224-.005-6.45a4.872,4.872,0,0,0-.007-.51.7.7,0,0,0-.8-.715q-3.573,0-7.147,0c-.612,0-.855.253-.855.877Q120.657,417.395,120.658,419.5Zm9.007-8.158c-.9,0-1.8,0-2.7,0a.478.478,0,0,0-.485.484,6.811,6.811,0,0,0,0,.765.491.491,0,0,0,.518.489c.116,0,.234,0,.35,0h4.875c.429,0,.6-.156.623-.584.012-.191.012-.383.005-.574-.015-.425-.183-.585-.614-.585Q130.956,411.343,129.665,411.345Zm7.241,16.292h0c-.254,0-.51-.01-.764,0a1.136,1.136,0,0,0-1.047,1.082,1.117,1.117,0,0,0,1.026,1.1q.779.029,1.559,0a1.092,1.092,0,0,0-.044-2.18C137.394,427.632,137.15,427.637,136.906,427.637Zm-7.228.929v0c-.819,0-1.639-.007-2.457.008-.118,0-.232.109-.348.168.113.063.228.179.342.179q2.458.016,4.914-.005c.112,0,.223-.122.335-.186-.109-.056-.219-.159-.329-.16C131.317,428.559,130.5,428.566,129.679,428.566Zm0,.931h-2.326a.742.742,0,0,0-.253.005.957.957,0,0,0-.219.172,1.386,1.386,0,0,0,.22.183.423.423,0,0,0,.187.01q2.39,0,4.78,0a.875.875,0,0,0,.28-.04c.049-.016.115-.09.109-.133a.234.234,0,0,0-.111-.168.781.781,0,0,0-.279-.034Zm0-1.861h-1.943c-.223,0-.447-.011-.668.011-.07.007-.128.105-.193.163a.9.9,0,0,0,.2.16.586.586,0,0,0,.22.01h4.746a.818.818,0,0,0,.253-.01c.068-.023.165-.092.168-.145s-.077-.141-.141-.175a.5.5,0,0,0-.22-.014ZM119.172,421.7v-.761h-.543v.761Zm21-.767v.763h.537v-.763Z" transform="translate(674.181 972.913)" fill="#fff"/>
    <path id="Path_11" data-name="Path 11" d="M121.59,223.969a2.322,2.322,0,0,1,.37-.06q3.319,0,6.637,0a1.337,1.337,0,0,1,1.419,1.42q0,4.711,0,9.421a1.328,1.328,0,0,1-1.4,1.4q-3.589,0-7.18,0h-.307c-.672-1.882-1.455-2.56-2.927-2.57a2.762,2.762,0,0,0-1.916.732,2.964,2.964,0,0,0-.95,1.833c-.433,0-.849.026-1.261-.005a1.34,1.34,0,0,1-1.142-1.4c-.005-1.9,0-3.789,0-5.685q0-1.787,0-3.576a1.4,1.4,0,0,1,1.563-1.58q2.361,0,4.723,0a2.079,2.079,0,0,1,.339.053l1.065,1.011C120.952,224.632,121.272,224.3,121.59,223.969Z" transform="translate(663.151 1142.201)" fill="#fff"/>
    <path id="Path_12" data-name="Path 12" d="M398.777,196.156c.051.027.06.037.068.037.642-.018.642-.018.642.656,0,.256-.011.511,0,.767.011.2-.082.273-.265.247-.344-.049-.689-.105-1.086-.167-.1.23-.212.5-.35.817a2.531,2.531,0,0,1,.506-.041c.085.01.225.107.227.169.019.5.011.995.011,1.572l-1.367-.21c-.172.4-.366.845-.553,1.291-.579,1.38-1.149,2.763-1.736,4.139a1.211,1.211,0,0,1-.9.734c-.234.049-.47.093-.778.154.657-3.945,1.306-7.832,1.96-11.744-.573-.055-1.119-.1-1.666-.161-1.815-.2-3.628-.41-5.443-.6a.435.435,0,0,0-.335.141c-.575.752-1.129,1.518-1.7,2.274a1.1,1.1,0,0,1-1.11.529c.325-1.122.645-2.222.968-3.332-.292-.111-.571-.2-.838-.325a.4.4,0,0,1-.206-.245c-.01-.057.116-.169.2-.206.261-.112.533-.2.842-.314-.32-1.1-.638-2.2-.961-3.308a.9.9,0,0,1,.992.381c.383.469.735.961,1.1,1.444.23.3.466.607.678.922a.325.325,0,0,0,.366.163c.894-.123,1.789-.246,2.685-.344,1.024-.113,2.05-.2,3.075-.3.441-.042.881-.079,1.346-.122-.653-3.922-1.3-7.8-1.949-11.691.931.051,1.475.312,1.76,1.04.679,1.727,1.434,3.425,2.158,5.134.016.038.036.075.057.118.347-.066.687-.123,1.025-.2.231-.051.34.007.331.265-.014.372-.016.746,0,1.118.011.247-.056.361-.321.313a2.625,2.625,0,0,0-.409,0c.118.284.225.548.329.8.363-.062.7-.108,1.026-.178.241-.052.335.02.327.269-.012.362,0,.724,0,1.086,0,.346-.042.374-.4.335a3.141,3.141,0,0,0-.325,0c.19.441.358.862.559,1.268a.4.4,0,0,0,.3.139c.829.011,1.66-.005,2.49.008a9.119,9.119,0,0,1,3.9.76,2.955,2.955,0,0,1,.724.507.8.8,0,0,1-.011,1.257,3.464,3.464,0,0,1-1.807.881,19.039,19.039,0,0,1-2.484.335c-.922.057-1.85.022-2.776.018a.36.36,0,0,0-.407.257C399.12,195.391,398.943,195.765,398.777,196.156Z" transform="translate(422.815 1180.52)" fill="#fff"/>
    <path id="Path_15" data-name="Path 15" d="M250.872,253.185a2.944,2.944,0,0,0-1.9-2.3,2.869,2.869,0,0,0-3.728,1.908c-.123.435-.149.455-.553.268a1.26,1.26,0,0,1-.769-1.245c0-.83,0-1.66,0-2.49,0-1.373.029-2.747-.011-4.119a1.377,1.377,0,0,1,1.423-1.438c1.03.038,2.062,0,3.094.007a2.437,2.437,0,0,1,1.726.839c.981.984,1.969,1.961,2.941,2.953a2.181,2.181,0,0,1,.67,1.541c.008.927.011,1.852,0,2.778a1.269,1.269,0,0,1-1.317,1.293C251.933,253.189,251.412,253.185,250.872,253.185Zm-2.4-5.3c.9,0,1.805,0,2.709-.005a1.026,1.026,0,0,0,.309-.111,1,1,0,0,0-.139-.3q-.941-.972-1.9-1.93a1.652,1.652,0,0,0-1.306-.537c-.7.031-1.4.007-2.1.008-.611,0-.8.185-.806.8-.005.489-.007.978,0,1.466.007.454.168.609.622.611C246.73,247.886,247.6,247.883,248.471,247.883Z" transform="translate(550.065 1125.05)" fill="#fff"/>
    <path id="Path_18" data-name="Path 18" d="M149.511,546.98c.4.389.8.775,1.2,1.17.543.545,1.077,1.1,1.614,1.648a1.4,1.4,0,0,1-.291.067c-.456.007-.914.014-1.371,0-.256-.009-.34.086-.321.332a5.838,5.838,0,0,1,0,.638c-.01.318-.156.48-.465.482q-1.132.012-2.263,0a.454.454,0,0,1-.465-.489c-.005-.3,0-.611,0-.942a2.42,2.42,0,0,1-1.588-.418l1.777-1.772c.3-.023.6-.027.9-.075a3.509,3.509,0,0,0,.866-.22C149.269,547.326,149.377,547.123,149.511,546.98Z" transform="translate(648.858 855.113)" fill="#fff"/>
    <path id="Path_19" data-name="Path 19" d="M140.777,516.64,139,518.413a1.9,1.9,0,0,1-1.014-1.619c-.042-1.865-.023-3.733-.023-5.6,0-.062.053-.122.082-.183l3.3,3.314c-.277.019-.553.048-.831.056a1.081,1.081,0,0,0-1.089,1.085,1.093,1.093,0,0,0,1.067,1.11A1.675,1.675,0,0,1,140.777,516.64Z" transform="translate(655.421 886.168)" fill="#fff"/>
    <path id="Path_21" data-name="Path 21" d="M138.367,304.635a2.078,2.078,0,1,1,.086-4.156,2.087,2.087,0,0,1,2.042,2.095A2.052,2.052,0,0,1,138.367,304.635Zm.94-2.054a.908.908,0,1,0-.922.9A.93.93,0,0,0,139.307,302.581Z" transform="translate(642.967 1076.093)" fill="#fff"/>
    <path id="Path_22" data-name="Path 22" d="M260.819,300.614a2.037,2.037,0,0,1,2.065,2.073,2.06,2.06,0,0,1-2.09,2.066,2.027,2.027,0,0,1-2.062-1.909A2.054,2.054,0,0,1,260.819,300.614Zm-.927,1.949a.914.914,0,1,0,1.819.164c.04-.462-.418-1.036-.875-.991a2.12,2.12,0,0,0-.869.384C259.883,302.176,259.914,302.411,259.892,302.563Z" transform="translate(537.275 1075.981)" fill="#fff"/>
    <path id="Path_26" data-name="Path 26" d="M163.453,224,162.485,225l-1.065-1.011c.394-.019.786-.049,1.179-.052C162.884,223.936,163.169,223.975,163.453,224Z" transform="translate(621.287 1142.173)" fill="#fff"/>
    <path id="Path_27" data-name="Path 27" d="M295.609,497.37l.849.842C295.8,498.4,295.464,498.067,295.609,497.37Z" transform="translate(519.343 897.944)" fill="#fff"/>
  </g>
</svg>
