<svg xmlns="http://www.w3.org/2000/svg" width="44.968" height="46.434" viewBox="0 0 44.968 46.434">
  <g id="behavior" transform="translate(-74.202 -142.87)">
    <path id="Path_28" data-name="Path 28" d="M158.226,246.686H147.08c-.1-.578-.157-1.136-.288-1.677a6.207,6.207,0,0,0-1.669-2.977,1.14,1.14,0,0,1-.349-.9q.014-9.1.006-18.2a4.491,4.491,0,1,0-8.977-.279c-.023.7-.007,1.4-.007,2.105q0,8.232,0,16.466a.935.935,0,0,1-.289.738,6.6,6.6,0,0,0-1.936,4.337c-.007.108-.024.216-.038.322,0,.014-.014.026-.036.065H122.349c-.008-.167-.021-.331-.021-.494q0-9.987-.008-19.974a.815.815,0,0,1,.354-.737q8.66-6.686,17.3-13.394a.421.421,0,0,1,.63,0q8.658,6.724,17.325,13.436a.831.831,0,0,1,.309.555q.024,10.174.012,20.348C158.249,246.5,158.236,246.575,158.226,246.686Zm-25.807-23.243c.575,0,1.149.006,1.725,0,.541-.007.894-.3.9-.739s-.344-.755-.88-.758q-1.724-.011-3.449,0c-.543,0-.893.3-.9.738s.353.755.926.76S131.859,223.443,132.418,223.443Zm15.7,0c.591,0,1.181.007,1.771,0,.532-.008.886-.327.874-.765a.782.782,0,0,0-.861-.73q-1.748-.013-3.5,0a.756.756,0,1,0-.013,1.5C146.968,223.451,147.542,223.442,148.117,223.443Zm-15.693,7.486c.575,0,1.149.006,1.725,0,.54-.007.892-.306.9-.743s-.348-.75-.885-.753q-1.724-.011-3.449,0c-.54,0-.891.3-.9.742s.348.746.885.754C131.274,230.936,131.848,230.929,132.424,230.929Zm15.721,0c.575,0,1.149.006,1.725,0,.539-.007.891-.308.893-.746s-.35-.747-.889-.75q-1.724-.01-3.449,0c-.541,0-.891.306-.893.745s.35.743.888.751C146.994,230.936,147.57,230.929,148.144,230.929Zm-15.763,7.487c.591,0,1.181.006,1.771,0,.539-.008.891-.31.891-.748s-.352-.745-.89-.749q-1.724-.01-3.449,0c-.54,0-.891.307-.891.747s.351.741.89.75C131.262,238.422,131.822,238.416,132.382,238.416Zm15.764-1.5c-.575,0-1.149-.006-1.725,0-.539.008-.89.31-.889.749s.352.743.891.747q1.724.01,3.449,0c.538,0,.89-.311.89-.75s-.352-.74-.892-.747C149.3,236.91,148.72,236.916,148.145,236.916Zm-14.957-9.73c.341,0,.683.009,1.024,0a.753.753,0,1,0-.021-1.5c-.682-.01-1.366-.012-2.048,0a.771.771,0,0,0-.832.756.786.786,0,0,0,.853.738C132.5,227.194,132.846,227.186,133.188,227.186Zm14.2-1.5c-.341,0-.683-.01-1.024,0a.749.749,0,1,0-.016,1.492c.7.015,1.4.014,2.094,0a.75.75,0,1,0,.015-1.493C148.1,225.676,147.739,225.687,147.383,225.687Zm-14.207,8.985c.357,0,.714.013,1.07,0a.772.772,0,0,0,.8-.745.763.763,0,0,0-.8-.744q-1.07-.024-2.141,0a.762.762,0,0,0-.8.744.771.771,0,0,0,.8.746C132.462,234.684,132.82,234.671,133.176,234.671Zm14.224-1.5h-.978c-.031,0-.062,0-.093,0a.781.781,0,0,0-.8.746.763.763,0,0,0,.794.747q1.07.025,2.141,0a.746.746,0,1,0,0-1.489C148.114,233.161,147.757,233.174,147.4,233.172Zm-14.207,8.986c.341,0,.683.01,1.024,0a.777.777,0,0,0,.827-.764.769.769,0,0,0-.812-.729q-1.048-.021-2.094,0a.75.75,0,1,0-.014,1.493C132.479,242.17,132.836,242.159,133.193,242.159Zm14.168,0c.357,0,.714.009,1.07,0a.753.753,0,1,0-.021-1.494c-.682-.01-1.366-.012-2.048,0a.771.771,0,0,0-.832.756.785.785,0,0,0,.852.739C146.71,242.167,147.035,242.159,147.361,242.159Z" transform="translate(-43.608 -62.599)" fill="#fff"/>
    <path id="Path_29" data-name="Path 29" d="M96.686,142.87c2.241,1.734,4.459,3.449,6.675,5.165q7.41,5.738,14.821,11.473a2.016,2.016,0,0,1,.987,1.7,1.778,1.778,0,0,1-2.861,1.364c-1.609-1.232-3.207-2.477-4.808-3.717q-7.226-5.595-14.446-11.2a.5.5,0,0,0-.749.006q-9.5,7.383-19.024,14.748a1.918,1.918,0,0,1-1.866.426,1.656,1.656,0,0,1-1.176-1.333,1.719,1.719,0,0,1,.676-1.778q2.327-1.8,4.656-3.608l16.743-12.966C96.424,143.066,96.537,142.982,96.686,142.87Z" transform="translate(0)" fill="#fff"/>
    <path id="Path_30" data-name="Path 30" d="M266.328,306.985c0,3.211,0,6.422-.007,9.633a.8.8,0,0,0,.336.7,5.24,5.24,0,1,1-8.47,4.985,5.051,5.051,0,0,1,1.775-4.938,1.015,1.015,0,0,0,.388-.867q-.017-9.54-.006-19.079a2.991,2.991,0,1,1,5.981-.024Q266.331,302.194,266.328,306.985Zm-2.242,4.973v-6.686c0-.745-.26-1.128-.758-1.121s-.742.382-.742,1.137q0,6.756.006,13.513a.617.617,0,0,1-.363.647A2.1,2.1,0,0,0,261.1,321.5a2.235,2.235,0,0,0,4.352.579,2.189,2.189,0,0,0-1.065-2.666.508.508,0,0,1-.308-.537C264.09,316.571,264.086,314.264,264.086,311.958Z" transform="translate(-166.656 -137.314)" fill="#fff"/>
    <path id="Path_31" data-name="Path 31" d="M415.754,196.345l-2.477-1.916c-1.033-.8-2.058-1.609-3.1-2.393-.292-.219-.472-.44-.326-.846h5.905Z" transform="translate(-304.137 -43.791)" fill="#fff"/>
  </g>
</svg>
