<svg xmlns="http://www.w3.org/2000/svg" width="49.312" height="46.434" viewBox="0 0 49.312 46.434">
  <path id="light_vehicles" data-name="light vehicles" d="M207.1,263.917c-1.453,0-2.8,0-4.138,0-.787,0-1.327-.458-1.33-1.092a1.183,1.183,0,0,1,1.313-1.131c1.343-.019,2.688,0,4.095,0v-4.737c-1.387,0-2.753.023-4.119-.008-1.039-.023-1.643-.935-1.089-1.669a1.6,1.6,0,0,1,1.075-.533c1.364-.063,2.734-.024,4.193-.024a6.242,6.242,0,0,1,.016-1.164c.071-.358.223-.95.416-.982a4.641,4.641,0,0,1,1.607.152c.3.06.566.33.863.358.932.091,1.889.016,2.806.178a5.66,5.66,0,0,1,4.13,3.048,1.045,1.045,0,0,0,1.181.675c.4-.047.809.026,1.209-.016a1.41,1.41,0,0,1,1.7,1.162c3.077,0,6.142-.01,9.209,0a13.639,13.639,0,0,1,4.2,26.606c-.249.081-.5.165-.7.231,0,4.13,0,8.193,0,12.255,0,1.3-.445,1.741-1.741,1.745-1.266,0-2.53.008-3.8,0-1.117-.01-1.557-.46-1.563-1.568,0-.456,0-.913,0-1.432H201.619c0,.536.01,1.067,0,1.6a1.24,1.24,0,0,1-1.317,1.4q-2.219.046-4.441,0a1.262,1.262,0,0,1-1.321-1.34c.076-4.813.125-9.63.32-14.44a5.562,5.562,0,0,1,2.311-4.384c-.507-.176-.922-.306-1.329-.464a1.7,1.7,0,0,1-1.279-1.816,1.788,1.788,0,0,1,1.795-1.442c.806-.032,1.618.027,2.42-.042a1.441,1.441,0,0,0,.77-.49,2.762,2.762,0,0,0,.371-.711,7.331,7.331,0,0,1,6.2-4.258,87.107,87.107,0,0,1,12.9-.282,31.661,31.661,0,0,1,4.4.5,6.638,6.638,0,0,1,4.944,4.106,1.631,1.631,0,0,0,1.924,1.17,9.1,9.1,0,0,1,1.693.006,1.824,1.824,0,0,1,1.756,1.5,1.732,1.732,0,0,1-1.2,1.724c-.418.17-.856.286-1.411.469a6.242,6.242,0,0,1,2.229,3.818,9.57,9.57,0,0,0,4.29-2.313c3.527-3.251,4.776-7.259,3.345-11.844a10.676,10.676,0,0,0-9.4-7.828,60.637,60.637,0,0,0-7.341-.086c-.7,0-1.4.01-2.1,0-.61-.011-1.207-.1-1.473.7-.07.214-.51.33-.8.435a1.187,1.187,0,0,1-.56.011,2.551,2.551,0,0,0-2.905,1.406,5.413,5.413,0,0,1-4.732,2.47c-.456.016-.914,0-1.372,0a1.532,1.532,0,0,0-1.277.413c-.277.28-1.023.223-1.507.1-.207-.052-.329-.638-.4-1A6.131,6.131,0,0,1,207.1,263.917Zm-7.026,14.461a186.285,186.285,0,0,1,28.015-.016c-.607-1.351-1.086-2.483-1.617-3.59a5.147,5.147,0,0,0-4.375-3.093,74.983,74.983,0,0,0-15.93.007,4.562,4.562,0,0,0-3.684,2.007C201.618,275.121,200.941,276.665,200.074,278.378Zm13.755,10.777c1.855-.121,3.439-.2,5.017-.333,2.7-.231,2.763-.3,3.374-2.852.312-1.3-.094-1.944-1.419-2-3.193-.141-6.39-.267-9.584-.307a30.922,30.922,0,0,0-3.933.32c-1.162.134-1.537.711-1.269,1.842.123.521.306,1.028.434,1.547a1.551,1.551,0,0,0,1.463,1.282C209.971,288.839,212.031,289,213.829,289.155Zm.286,2.06c-1.612,0-3.226.011-4.838-.006-.607-.006-.906.243-.9.855,0,.269.008.537,0,.806a.778.778,0,0,0,.889.892q4.88.01,9.758,0a.748.748,0,0,0,.837-.921,4.714,4.714,0,0,1,0-.725c.044-.655-.259-.916-.91-.908C217.341,291.23,215.727,291.215,214.115,291.215Zm9.858-3.237c1.654-.159,3.145-.32,4.637-.442,3.025-.244,3.334-2.418,2.5-4.467a.846.846,0,0,0-.709-.384c-1.418.28-2.84.57-4.223.987a2.139,2.139,0,0,0-1.236,1.026A28.315,28.315,0,0,0,223.973,287.978Zm-19.7,0c-.27-1.016-.528-1.931-.754-2.853a1.881,1.881,0,0,0-1.439-1.473c-1.4-.353-2.811-.672-4.226-.973a.707.707,0,0,0-.6.193,2.888,2.888,0,0,0,1.848,4.6C200.765,287.726,202.455,287.8,204.269,287.973Zm9.783-29.074h-1.61c.4-1.125.787-2.185,1.169-3.245l-.131-.063-3.773,3.97,1.549.086c-.411,1.133-.793,2.188-1.177,3.242l.113.055Z" transform="translate(-194.539 -252.543)" fill="#fff"/>
</svg>
