<svg xmlns="http://www.w3.org/2000/svg" width="40.212" height="45.377" viewBox="0 0 40.212 45.377">
  <g id="nuclear" transform="translate(-120.276 -180.688)">
    <path id="Path_75" data-name="Path 75" d="M147.194,191.554c1.159-.314,2.257-.642,3.371-.908a16.593,16.593,0,0,1,5.669-.552,7.992,7.992,0,0,1,1.954.455,3.392,3.392,0,0,1,2.243,3.953,8.646,8.646,0,0,1-1.424,3.355,26.753,26.753,0,0,1-4.506,5.092l-.459.419c.065.071.116.139.178.194a28.243,28.243,0,0,1,4.671,5.168,8.014,8.014,0,0,1,1.585,4.013,3.26,3.26,0,0,1-1.588,3.137,6.647,6.647,0,0,1-3.591.854,22.61,22.61,0,0,1-6.252-1c-.6-.168-1.2-.363-1.838-.555-.113.494-.216.974-.332,1.452a24.415,24.415,0,0,1-2.182,6.049,8.9,8.9,0,0,1-1.7,2.267,3.59,3.59,0,0,1-5.149.054,9.79,9.79,0,0,1-2.269-3.3,28.992,28.992,0,0,1-1.947-6.237c-.017-.084-.047-.167-.079-.28-.327.1-.637.2-.949.3a25.415,25.415,0,0,1-6.744,1.247,8.537,8.537,0,0,1-3-.39,3.5,3.5,0,0,1-2.436-4.426,10.137,10.137,0,0,1,1.663-3.433,28.761,28.761,0,0,1,4.448-4.883c.065-.058.132-.114.226-.195-.294-.273-.568-.522-.839-.776a23.789,23.789,0,0,1-4.574-5.459,7.507,7.507,0,0,1-1.047-3.006,3.4,3.4,0,0,1,1.958-3.481,7.946,7.946,0,0,1,3.813-.634,26.574,26.574,0,0,1,7.048,1.411c.135.043.272.082.444.134.071-.315.139-.613.206-.91a24.186,24.186,0,0,1,2.213-6.385,11.032,11.032,0,0,1,1.576-2.233,3.642,3.642,0,0,1,5.708.018,11.883,11.883,0,0,1,2.3,3.838,30.259,30.259,0,0,1,1.564,5.323C147.145,191.34,147.17,191.445,147.194,191.554Zm-13.316,11.821h.1c0,1.1.007,2.205-.005,3.308a.562.562,0,0,0,.313.557q2.924,1.681,5.838,3.379a.482.482,0,0,0,.521,0,61.123,61.123,0,0,0,5.888-3.425.59.59,0,0,0,.235-.385c.045-.515.069-1.035.067-1.553q-.011-2.631-.056-5.26a.542.542,0,0,0-.209-.4q-2.98-1.75-5.98-3.463a.5.5,0,0,0-.418,0c-1.981,1.131-3.955,2.278-5.932,3.415a.478.478,0,0,0-.261.452C133.951,201.125,133.912,202.25,133.878,203.375Zm-7.865,11.938a22.442,22.442,0,0,0,2.381-.3c1.548-.338,3.076-.771,4.611-1.168.155-.04.3-.073.271-.324-.214-1.661-.435-3.322-.594-4.989a1.29,1.29,0,0,0-.612-1.051c-1.348-.958-2.657-1.97-3.978-2.964-.127-.1-.222-.188-.391-.036a26.651,26.651,0,0,0-4.665,5.167,7.575,7.575,0,0,0-1.277,3.021,1.913,1.913,0,0,0,1.106,2.121A7.3,7.3,0,0,0,126.013,215.313Zm1.828-12.914a1.109,1.109,0,0,0,.119-.058q2.255-1.677,4.5-3.361a.525.525,0,0,0,.163-.33c.218-1.793.42-3.588.64-5.38.024-.2-.018-.281-.2-.334-.55-.16-1.094-.339-1.644-.5a20.9,20.9,0,0,0-6.049-.965,6.019,6.019,0,0,0-2.39.44,1.91,1.91,0,0,0-1.224,2.144,6.6,6.6,0,0,0,1.026,2.627,23.52,23.52,0,0,0,3.9,4.645C127.07,201.695,127.461,202.048,127.841,202.4Zm27.228,12.9c.005.029.012.06.017.089a21.4,21.4,0,0,0,2.36-.425,1.992,1.992,0,0,0,1.5-2.631,8.387,8.387,0,0,0-1.4-2.935,27.892,27.892,0,0,0-4.393-4.837.325.325,0,0,0-.515-.023q-2.093,1.59-4.215,3.14a.668.668,0,0,0-.3.535q-.261,2.465-.561,4.926c-.074.6-.1.606.5.8A25.06,25.06,0,0,0,155.069,215.3Zm-9.282-23.231a.418.418,0,0,0,.008-.106,28.629,28.629,0,0,0-1.978-6.331,9.217,9.217,0,0,0-1.757-2.667,2.078,2.078,0,0,0-3.255-.087,8.332,8.332,0,0,0-1.755,2.547,29,29,0,0,0-2.033,6.243c-.078.342.027.44.319.562,1.6.668,3.183,1.359,4.768,2.055a.6.6,0,0,0,.556,0c.878-.412,1.759-.819,2.65-1.2C144.129,192.725,144.962,192.4,145.788,192.069Zm.069,22.693a1.077,1.077,0,0,0-.139-.106c-1.721-.739-3.442-1.481-5.168-2.209a.562.562,0,0,0-.4.022c-1.643.7-3.28,1.411-4.924,2.106-.211.09-.283.168-.231.407a28.147,28.147,0,0,0,2.058,6.373,8.071,8.071,0,0,0,1.831,2.612,1.959,1.959,0,0,0,2.755.182,5.925,5.925,0,0,0,1.458-1.7,16.237,16.237,0,0,0,1.711-3.9C145.2,217.293,145.517,216.011,145.857,214.762Zm8.961-23.338a28.8,28.8,0,0,0-7.137,1.514c-.168.053-.206.132-.183.313.219,1.793.419,3.589.64,5.381a.647.647,0,0,0,.227.4c1.433,1.083,2.88,2.149,4.315,3.228.16.12.252.144.414,0a29.749,29.749,0,0,0,4.235-4.582,8.931,8.931,0,0,0,1.629-3.3,2,2,0,0,0-1.376-2.537,3.638,3.638,0,0,0-.826-.225C156.112,191.53,155.465,191.483,154.818,191.424Zm-8.151,6.458c-.188-1.492-.368-2.915-.559-4.42l-4.089,1.732Zm-.559,15.42c.192-1.513.37-2.928.559-4.419l-4.653,2.686Zm-11.451,0,4.092-1.739-4.648-2.68C134.289,210.38,134.467,211.795,134.657,213.3Zm4.1-18.112-4.1-1.723c-.188,1.506-.366,2.929-.551,4.416Zm9.534,5.517v5.354l3.539-2.681Zm-15.809,5.357V200.7l-3.543,2.668C130.14,204.288,131.281,205.156,132.478,206.065Z" transform="translate(0)" fill="#fff"/>
    <path id="Path_76" data-name="Path 76" d="M272.8,360.7a3.595,3.595,0,1,1,3.578,3.616A3.588,3.588,0,0,1,272.8,360.7Zm5.749.058a2.16,2.16,0,1,0-2.205,2.118A2.164,2.164,0,0,0,278.549,360.761Z" transform="translate(-136.012 -157.341)" fill="#fff"/>
  </g>
</svg>
