<svg xmlns="http://www.w3.org/2000/svg" width="49.029" height="46" viewBox="0 0 49.029 46">
  <g id="solar" transform="translate(-162.59 -256.08)">
    <path id="Path_91" data-name="Path 91" d="M244.707,392.589H228.99c.271-.985.529-1.932.794-2.877q1.435-5.134,2.87-10.266.8-2.878,1.595-5.76a.394.394,0,0,1,.457-.347q13.357.012,26.716,0c.23,0,.344.056.411.3q2.587,9.3,5.191,18.6c.028.1.046.2.081.353h-.478q-7.387,0-14.776-.01c-.36,0-.5.105-.575.447-.347,1.507-.72,3.01-1.082,4.514-.026.112-.036.227-.062.4h6.248a.988.988,0,0,1,.988.644.906.906,0,0,1-.205,1.118,1.612,1.612,0,0,1-.917.34c-1.943.03-3.888.015-5.831.015q-5.279,0-10.56,0a1.088,1.088,0,0,1-1.193-.906,1.047,1.047,0,0,1,1.111-1.212c1.918,0,3.835,0,5.753,0h.482C245.568,396.142,245.142,394.388,244.707,392.589Zm3.981-1.32h7.544c-.275-2.07-.546-4.1-.817-6.141h-6.727Zm14.7-6.118h-6.751c.284,1.954.57,3.86.828,5.768.041.3.132.385.432.383,2.3-.012,4.593,0,6.888,0a2.267,2.267,0,0,0,.255-.036C264.487,389.2,263.936,387.17,263.391,385.151Zm-23.931-.013a1.659,1.659,0,0,0-.206-.031c-2.088,0-4.174,0-6.261-.008-.243,0-.3.115-.355.316-.406,1.519-.822,3.035-1.234,4.552-.115.426-.224.852-.345,1.312h7.517C238.871,389.239,239.162,387.207,239.46,385.138Zm1.228-.016c-.271,2.048-.541,4.083-.815,6.151H247.4v-6.151Zm6.758-5.91c-.109-.008-.21-.023-.312-.023-1.746,0-3.492.02-5.237,0-.378,0-.455.133-.492.462-.1.912-.237,1.821-.357,2.732-.069.526-.132,1.054-.2,1.593h6.6Zm8.344-.015c.233,1.631.459,3.2.687,4.782h6.567a1.359,1.359,0,0,0-.018-.159c-.391-1.456-.792-2.91-1.172-4.368-.064-.245-.2-.26-.4-.258-1.182,0-2.364,0-3.546,0Zm-16.166,4.792q.343-2.377.682-4.738a.509.509,0,0,0-.133-.046c-1.861,0-3.722,0-5.582-.013-.247,0-.3.123-.353.319-.37,1.392-.75,2.781-1.124,4.172-.025.094-.033.192-.053.3C235.26,383.989,237.421,383.989,239.624,383.989Zm15.615-.008c0-.1,0-.173-.015-.248-.186-1.4-.383-2.8-.551-4.21-.035-.283-.143-.335-.4-.332-1.128.01-2.254,0-3.381,0-.743,0-1.488,0-2.229,0v4.792Zm-.74-5.79c-.161-1.192-.327-2.318-.457-3.449-.035-.3-.14-.36-.416-.358-1.562.011-3.122,0-4.683.007-.1,0-.2.015-.317.023v3.777Zm-7.032,0v-3.773h-5.356c-.173,1.266-.342,2.507-.513,3.773Zm-6.477-3.753a.6.6,0,0,0-.135-.043c-1.665,0-3.33-.008-5,.007a.43.43,0,0,0-.3.26c-.224.753-.421,1.512-.626,2.27-.11.409-.217.82-.327,1.233a.706.706,0,0,0,.163.056q2.389-.007,4.779-.018c.886,0,.9,0,1.034-.853C240.737,376.381,240.857,375.408,240.99,374.436Zm20.517,3.764c-.324-1.2-.639-2.334-.932-3.475a.383.383,0,0,0-.452-.345c-1.548.015-3.1.007-4.649.008-.113,0-.225.015-.375.025.166,1.152.342,2.265.48,3.381.039.314.135.414.455.411,1.68-.015,3.362-.007,5.042-.007C261.2,378.2,261.333,378.2,261.507,378.2Z" transform="translate(-55.485 -97.984)" fill="#fff"/>
    <path id="Path_92" data-name="Path 92" d="M215.172,304.733a7.653,7.653,0,1,0-8.41,4.512l-.473,1.851c-.574-.176-1.144-.311-1.683-.523a9.545,9.545,0,1,1,12.932-10.47,9.28,9.28,0,0,1-.258,4.327c-.069.23-.163.314-.406.306C216.309,304.72,215.745,304.733,215.172,304.733Z" transform="translate(-30.068 -30.15)" fill="#fff"/>
    <path id="Path_93" data-name="Path 93" d="M165.057,346.241c-.472,0-.945,0-1.417,0a.967.967,0,1,1-.016-1.928c.972-.01,1.943-.015,2.915,0a.969.969,0,1,1,.016,1.93c-.5.012-1,0-1.5,0C165.057,346.243,165.057,346.241,165.057,346.241Z" transform="translate(0 -73.719)" fill="#fff"/>
    <path id="Path_94" data-name="Path 94" d="M322.712,346.246c-.485,0-.971.012-1.456,0a.965.965,0,1,1,.018-1.923q1.477-.02,2.952,0a.949.949,0,0,1,1.014.97.969.969,0,0,1-1.032.955c-.25.007-.5,0-.748,0s-.5,0-.748,0Z" transform="translate(-131.718 -73.726)" fill="#fff"/>
    <path id="Path_95" data-name="Path 95" d="M311.939,303.677a.969.969,0,0,1-.993-.682.9.9,0,0,1,.353-1.039c.94-.567,1.89-1.121,2.854-1.649a.926.926,0,0,1,1.228.373.917.917,0,0,1-.3,1.276c-.916.557-1.849,1.085-2.781,1.614A1.337,1.337,0,0,1,311.939,303.677Z" transform="translate(-123.932 -36.869)" fill="#fff"/>
    <path id="Path_96" data-name="Path 96" d="M207.632,409.123a1,1,0,0,1-.924-1.366c.521-1.009,1.1-1.989,1.7-2.957a.945.945,0,0,1,1.608.967c-.531.976-1.082,1.943-1.672,2.885C208.205,408.87,207.875,408.969,207.632,409.123Z" transform="translate(-36.788 -123.966)" fill="#fff"/>
    <path id="Path_97" data-name="Path 97" d="M287.888,267.48a1.011,1.011,0,0,1,.939,1.414c-.516.983-1.087,1.94-1.667,2.888a.948.948,0,0,1-1.624-.955c.529-.976,1.087-1.941,1.677-2.883C287.346,267.732,287.658,267.631,287.888,267.48Z" transform="translate(-102.651 -9.526)" fill="#fff"/>
    <path id="Path_98" data-name="Path 98" d="M178.968,302.73a.935.935,0,0,1-1.355.863c-.962-.508-1.9-1.06-2.832-1.624a.95.95,0,0,1,.986-1.622c.917.51,1.835,1.021,2.722,1.581a2.785,2.785,0,0,1,.574.733C179.03,302.682,179,302.707,178.968,302.73Z" transform="translate(-9.829 -36.884)" fill="#fff"/>
    <path id="Path_99" data-name="Path 99" d="M178.97,380.052a.907.907,0,0,1-.482.789c-.9.528-1.807,1.057-2.721,1.565a.923.923,0,0,1-1.287-.365.936.936,0,0,1,.321-1.274c.917-.554,1.844-1.1,2.79-1.6A.952.952,0,0,1,178.97,380.052Z" transform="translate(-9.829 -102.76)" fill="#fff"/>
    <path id="Path_100" data-name="Path 100" d="M209.1,272.519a.891.891,0,0,1-.713-.508c-.5-.86-1-1.718-1.488-2.584a.956.956,0,0,1,.321-1.394.977.977,0,0,1,1.356.464c.492.848.991,1.693,1.47,2.55A.973.973,0,0,1,209.1,272.519Z" transform="translate(-36.889 -9.885)" fill="#fff"/>
    <path id="Path_101" data-name="Path 101" d="M252.728,258.607c0,.513.007,1.024,0,1.537a.929.929,0,0,1-.925.968.94.94,0,0,1-.975-.965q-.017-1.556,0-3.112a.954.954,0,0,1,.952-.955.943.943,0,0,1,.947.952C252.736,257.556,252.728,258.082,252.728,258.607Z" transform="translate(-73.724)" fill="#fff"/>
  </g>
</svg>
