<svg xmlns="http://www.w3.org/2000/svg" width="78.139" height="46.434" viewBox="0 0 78.139 46.434">
  <g id="transport_demand" data-name="transport demand" transform="translate(-82.516 -266.466)">
    <path id="Path_1" data-name="Path 1" d="M228.759,295.858c0,.35-.021.695,0,1.034a1.4,1.4,0,0,1-.6,1.278,4.008,4.008,0,0,1-.888.5c-.523.215-1.063.4-1.6.57-.359.116-.73.2-1.132.3l3.261,4.914-1.011,1.53a10.4,10.4,0,0,1-.693-1.06,1.228,1.228,0,0,0-1.3-.707c-5.154.031-10.309.019-15.463.01a.648.648,0,0,0-.62.336c-.764,1.176-1.543,2.344-2.321,3.51a.842.842,0,0,1-.976.378.77.77,0,0,1-.58-.728,1.47,1.47,0,0,1,.236-.709q2.372-3.593,4.768-7.17c.069-.1.134-.212.191-.3-.867-.3-1.715-.578-2.549-.9a3.4,3.4,0,0,1-.877-.52,1.272,1.272,0,0,1-.525-1.147c.026-.309,0-.622.006-.932,0-.158-.052-.22-.216-.244a1.579,1.579,0,0,1-1.472-1.736q0-10.738,0-21.475c0-.225-.015-.449-.034-.672a2.631,2.631,0,0,1,.864-2.131,8.683,8.683,0,0,1,3.287-1.951,21.151,21.151,0,0,1,6.2-1.279,43.8,43.8,0,0,1,4.65-.055,20.847,20.847,0,0,1,8.291,1.921,6.489,6.489,0,0,1,2.089,1.525,2.533,2.533,0,0,1,.7,2.029,3.584,3.584,0,0,0-.008.417v21.411C230.442,295.115,230.08,295.567,228.759,295.858Zm-8.606-16.295c0,.8,0,1.606,0,2.408a2.261,2.261,0,0,0,2.341,2.323q1.461,0,2.924,0a2.259,2.259,0,0,0,2.387-2.342c.021-1.585.016-3.169,0-4.754a2.267,2.267,0,0,0-2.392-2.334c-.972.048-1.95.042-2.922,0a2.283,2.283,0,0,0-2.342,2.352C220.164,278,220.153,278.781,220.153,279.563Zm-5.492.023c0-.824.006-1.649,0-2.473a2.212,2.212,0,0,0-2.24-2.237q-1.575-.007-3.148,0a2.179,2.179,0,0,0-2.231,2.14q-.044,2.537,0,5.074a2.207,2.207,0,0,0,2.281,2.2q1.526.007,3.051,0a2.24,2.24,0,0,0,2.289-2.3C214.664,281.191,214.661,280.388,214.661,279.586Zm2.775,16.224h-9.514c-.738,0-.738,0-.737.751,0,.678.092.821.735,1.058.541.2,1.084.4,1.636.564a3.047,3.047,0,0,0,.874.145c4.542.01,9.084-.01,13.626.016a9.186,9.186,0,0,0,3.182-.884.579.579,0,0,0,.4-.661,4.928,4.928,0,0,1,0-.578c0-.414,0-.414-.426-.414Q222.321,295.81,217.436,295.81Zm7.437,7.307c-.215-.334-.422-.617-.586-.922a.734.734,0,0,0-.816-.449,7.652,7.652,0,0,1-.963.008q-5.784,0-11.567,0c-.131,0-.323,0-.383.081-.3.4-.559.819-.864,1.278C214.784,303.117,219.8,303.117,224.873,303.117Zm-1.47-2.232c-.3-.439-.544-.838-.824-1.211a.551.551,0,0,0-.383-.2q-4.916-.017-9.831-.006c-.09,0-.223.008-.263.065-.31.43-.6.871-.932,1.355C215.271,300.885,219.3,300.885,223.4,300.885Zm-5.977-27.442a1.241,1.241,0,1,0-1.192-1.3A1.24,1.24,0,0,0,217.426,273.443Z" transform="translate(-102.161)" fill="#fff"/>
    <path id="Path_2" data-name="Path 2" d="M101.323,332.705v.407c0,1.6,0,3.193,0,4.789a1.259,1.259,0,0,1-.087.454,1.486,1.486,0,0,1-.693-.132.706.706,0,0,1-.2-.506c-.026-.5,0-1.006-.013-1.51a.849.849,0,0,0-.084-.242,1.44,1.44,0,0,1-.17.186c-.1.079-.213.2-.323.2-1.253.013-2.507.006-3.76,0-.018,0-.037-.016-.086-.04a2.465,2.465,0,0,0,.405-2.181,2.375,2.375,0,0,0-3.759-1.186c-.979.79-1.1,1.791-.4,3.394-.089.006-.17.018-.252.018-1.489,0-2.979,0-4.468,0-.231,0-.426-.023-.5-.294-.013-.048-.107-.074-.163-.111-.037.065-.1.128-.107.192-.01.493,0,.985-.006,1.478,0,.557-.2.753-.756.756-.375,0-.751.008-1.126,0a.584.584,0,0,1-.638-.643c-.01-.514.006-1.029-.01-1.543,0-.107-.1-.21-.147-.315-.087-.171-.246-.339-.254-.514-.029-.75-.013-1.5-.01-2.25,0-.1-.01-.226.045-.278.291-.281.207-.633.208-.968q.007-2.99,0-5.98c0-.052-.008-.1-.016-.21-.281,0-.556,0-.83,0a.544.544,0,0,1-.611-.615c-.006-.525-.008-1.05,0-1.575a.536.536,0,0,1,.6-.59c.183,0,.365.007.546,0a.755.755,0,0,1,.795.373c.126-.6.233-1.124.346-1.649.152-.7.3-1.4.464-2.1a2.121,2.121,0,0,1,2.156-1.87c.383-.034.769-.053,1.155-.053,3.408,0,6.815-.013,10.223.006a14.686,14.686,0,0,1,2.042.184c.48.069.473.108.473.586v1.843c-.615-.053-1.194-.144-1.774-.145q-6.171-.019-12.344,0a3.382,3.382,0,0,0-.732.078.928.928,0,0,0-.753.785c-.221,1.221-.43,2.444-.643,3.667a.677.677,0,0,0,.013.136h15.772c.459,0,.459,0,.459.473,0,1.618,0,3.235,0,4.854,0,.254-.063.349-.331.373-.7.066-1.4.179-2.1.26a.786.786,0,0,0-.69.5,4.522,4.522,0,0,0-.257.825.615.615,0,0,0,.643.675c.782,0,1.565,0,2.347,0C101.054,332.705,101.168,332.705,101.323,332.705Zm-14.434,0c.546,0,1.092,0,1.636,0a.583.583,0,0,0,.614-.659,3.118,3.118,0,0,0-.326-.961.836.836,0,0,0-.527-.355c-.968-.166-1.943-.3-2.917-.425a.55.55,0,0,0-.7.525,7.435,7.435,0,0,0,0,1.341c.034.37.267.531.64.533C85.841,332.709,86.366,332.705,86.889,332.705Z" transform="translate(0 -42.872)" fill="#fff"/>
    <path id="Path_3" data-name="Path 3" d="M362,447.1c-.129-.278-.26-.556-.389-.835l-.1-.066a1.405,1.405,0,0,1-.137.241c-.764.911-1.528,1.822-2.3,2.725a.809.809,0,0,0-.208.578c.008,1.339,0,2.68,0,4.019,0,.509-.186.7-.7.7q-1.495,0-2.99,0c-.334,0-.423-.105-.275-.4a.825.825,0,0,1,.4-.372c.417-.165.856-.271,1.278-.423.1-.036.236-.153.236-.236.016-1.048.011-2.1.011-3.2-.518,0-1.008.015-1.494-.008-.158-.008-.43.155-.468-.155a.526.526,0,0,1,.378-.6c.386-.128.775-.244,1.163-.367.05-.016.1-.042.173-.074-.053-.11-.1-.213-.15-.312-.675-1.253-1.355-2.5-2.029-3.757-.391-.727-.094-1.231.724-1.232,1.179,0,2.358,0,3.537,0h.4c-.636-1.363-1.245-2.665-1.875-4.011-1.194,1-2.352,1.979-3.526,2.967.57.27.653.5.405,1.034q-.8,1.749-1.61,3.5c-.048.1-.09.213-.128.3a10.651,10.651,0,0,1,.99.892,4.527,4.527,0,0,1,.916,4.818,4.472,4.472,0,0,1-3.827,3.017,4.709,4.709,0,0,1-1.3-9.327,5.173,5.173,0,0,1,1.974.1.331.331,0,0,0,.294-.115c.464-.976.911-1.959,1.36-2.941a.418.418,0,0,0,.006-.1c-.11-.006-.221-.019-.333-.021-.569,0-1.136,0-1.7,0a.52.52,0,0,1-.572-.549.5.5,0,0,1,.58-.533,1.786,1.786,0,0,0,1.481-.57c1.673-1.439,3.373-2.849,5.061-4.269a1.694,1.694,0,0,1,2.8.615c.833,1.783,1.659,3.571,2.5,5.353a1.742,1.742,0,0,1-.047,1.6.61.61,0,0,0-.013.434c.113.31.284.6.407.906.086.218.191.242.414.186a4.714,4.714,0,1,1-3.455,5.382,4.568,4.568,0,0,1,1.882-4.652c.076-.058.153-.115.231-.173C361.97,447.154,361.973,447.143,362,447.1Zm-11.153.535a3.657,3.657,0,0,0-4.468,2.1,3.711,3.711,0,0,0,6.77,3.037,3.65,3.65,0,0,0-1.292-4.65c-.065.134-.128.267-.191.4q-.666,1.422-1.333,2.848a.529.529,0,0,1-.62.338.5.5,0,0,1-.438-.485,1.136,1.136,0,0,1,.136-.485C349.881,449.7,350.361,448.676,350.847,447.631Zm12.673.073c.053.124.1.233.144.338l1.211,2.62c.031.068.066.134.094.2a.582.582,0,0,1-.247.8.568.568,0,0,1-.785-.338c-.422-.913-.835-1.828-1.253-2.741-.06-.132-.126-.262-.189-.394a3.565,3.565,0,0,0-1.25,4.579,3.612,3.612,0,1,0,2.276-5.064Zm-6.2-2.219c.278.514.528.976.8,1.48l1.226-1.48Z" transform="translate(-220.166 -142.99)" fill="#fff"/>
    <path id="Path_4" data-name="Path 4" d="M371.29,325.548c.04-.451.1-.85.107-1.249.013-1.286,0-2.572,0-3.857v-.4c.425,0,.829.027,1.228-.01a2.6,2.6,0,0,0,.919-.223.505.505,0,0,0,0-.966,2.212,2.212,0,0,0-.825-.213c-.4-.035-.814-.011-1.221-.015a.38.38,0,0,1-.079-.026v-1.223h6.112c.006-.152.018-.276.018-.4,0-3.45,0-6.9.008-10.352,0-.336-.1-.407-.42-.4-1.769.015-3.536.006-5.3.006h-.41V305.4h13.127a2.387,2.387,0,0,0,.417-.018,1.1,1.1,0,0,0,.963-1.106,1.154,1.154,0,0,0-1.076-1.014c-.107-.008-.215,0-.321,0h-13.11V302.13h14.4c.785,0,1.2.252,1.388.842a1.4,1.4,0,0,1,.052.41q0,9.6,0,19.193a1.123,1.123,0,0,1-1.2,1.21c-.62.011-.62.011-.62.636,0,.236,0,.472,0,.707a.355.355,0,0,1-.378.418q-.836.015-1.672,0a.339.339,0,0,1-.367-.389c.008-.375.008-.751,0-1.124a.723.723,0,0,0-.105-.236c-.082.045-.192.071-.241.141-.191.278-.273.292-.51.045a2.4,2.4,0,0,0-1.423-.743.859.859,0,0,1-.153-.04.184.184,0,0,1-.048-.04c.4-1.562-.027-2.722-1.215-3.321a2.56,2.56,0,0,0-3.138.662c-.864,1.073-.759,2.286.342,3.655h-1.651c-.451,0-.9.016-1.35-.01-.131-.008-.255-.131-.38-.207-.073-.044-.141-.1-.212-.145-.044.084-.123.166-.128.25-.015.375-.011.75-.006,1.124a.331.331,0,0,1-.347.375C372.059,325.558,371.653,325.548,371.29,325.548Zm7.038-8.206c.086.006.147.015.21.015,2.068,0,4.137,0,6.2,0a1.169,1.169,0,0,0,1.194-1.237q0-4.325,0-8.648a1.169,1.169,0,0,0-1.266-1.255q-2.99,0-5.98,0h-.362C378.328,309.94,378.328,313.623,378.328,317.343Zm5.655,2.72a11.033,11.033,0,0,0,1.176-.129.666.666,0,0,0,.615-.606c.016-.257-.267-.523-.638-.638a.22.22,0,0,0-.063-.013c-.8,0-1.6-.047-2.392.006a.756.756,0,0,0-.748.672c.018.276.367.572.8.63C383.107,320.035,383.482,320.034,383.983,320.063Z" transform="translate(-242.129 -29.904)" fill="#fff"/>
    <path id="Path_5" data-name="Path 5" d="M466.826,370.374a4.592,4.592,0,0,0,.753-.283,1.038,1.038,0,0,0,.527-.935v-1.828h2.03a2.348,2.348,0,0,0,.384-.015.492.492,0,0,0,.423-.554,2.468,2.468,0,0,0-.265-.783.778.778,0,0,0-.478-.313c-.682-.134-1.371-.226-2.093-.339,0-.685-.008-1.357.011-2.029,0-.065.17-.171.263-.178.792-.044,1.583-.086,2.374-.094,1.95-.021,3.9-.04,5.849-.027,1.092.008,2.182.081,3.274.124.069,0,.141,0,.254,0-.129-.363-.246-.693-.363-1.022-.228-.633-.452-1.27-.686-1.9a1.273,1.273,0,0,0-1.4-.971c-2.4,0-4.8.013-7.2-.008a1.3,1.3,0,0,0-1.308.885c-.336.762-.665,1.526-1.037,2.381-.013-.168-.024-.244-.024-.318,0-.74-.011-1.48.006-2.218a1.039,1.039,0,0,1,.163-.535,2.357,2.357,0,0,1,2.1-1.14c.51.013,1.022,0,1.577,0,0-.268,0-.5,0-.733.01-.456.173-.617.622-.617q1.56,0,3.119,0c.386,0,.536.153.548.544.023.806.023.8.835.808a7.486,7.486,0,0,1,1.25.034,2.146,2.146,0,0,1,1.643,1.515c.313.817.6,1.646.932,2.56.16-.426.467-.384.762-.38.225,0,.451,0,.675,0a.682.682,0,0,1,.25.036c.242.1.346.452.26.892a.452.452,0,0,1-.5.4c-.231,0-.462,0-.8,0a1.167,1.167,0,0,1,.493,1.129q-.022,1.495,0,2.99c0,.131.126.257.186.388a1.792,1.792,0,0,1,.212.509,8.516,8.516,0,0,1,.01.995c-.006.454-.17.609-.628.612h-.452c0,.441,0,.856,0,1.27s-.157.569-.557.58q-.482.015-.964,0c-.393-.013-.556-.187-.561-.583,0-.321,0-.643,0-.964,0-.1-.018-.2-.026-.284a.343.343,0,0,0-.078,0c-.157.47-.549.37-.9.37q-4.325,0-8.648,0c-.289,0-.586.04-.6-.438l-.09.061a1.042,1.042,0,0,0-.045.205c0,.365,0,.729,0,1.094s-.153.523-.5.538c-.363.016-.728.013-1.094,0a.458.458,0,0,1-.486-.457C466.812,371.012,466.826,370.67,466.826,370.374Zm11.942-3.046c.375,0,.75,0,1.126,0,.31,0,.533-.144.556-.46a6.689,6.689,0,0,0,0-1.152c-.034-.331-.27-.462-.6-.405-.665.111-1.328.237-1.995.329a.707.707,0,0,0-.6.464,3.421,3.421,0,0,0-.155.488.531.531,0,0,0,.548.735C478.018,367.336,478.393,367.328,478.768,367.328Z" transform="translate(-322.229 -75.846)" fill="#fff"/>
    <path id="Path_6" data-name="Path 6" d="M117.488,441.39q-.2,1.178-.4,2.355c-.076.443-.16.885-.208,1.331a.638.638,0,0,0,.118.436c.754.932,1.53,1.846,2.289,2.775a1.121,1.121,0,0,1,.173.407c.346,1.2.691,2.4,1.026,3.61.05.181.115.268.321.267.4,0,.791.029,1.187.044.439.016.565.121.68.6q-1.132.325-2.268.649c-.278.079-.556.158-.835.231a.519.519,0,0,1-.729-.412q-.548-1.912-1.084-3.827a.688.688,0,0,0-.068-.213c-.527-.735-1.06-1.467-1.591-2.2l-.084.023c-.092.551-.2,1.1-.271,1.654a1.213,1.213,0,0,1-.333.7c-.846.893-1.677,1.8-2.521,2.7a.322.322,0,0,0-.06.467c.207.325.383.669.565,1.008.212.389.184.549-.162.9l-1.654-1.551c-.218-.205-.436-.41-.654-.619-.355-.339-.365-.591-.023-.958.867-.934,1.743-1.859,2.6-2.8a.89.89,0,0,0,.244-.523,45.358,45.358,0,0,1,.819-7.488c.015-.078.015-.157.026-.294a2.6,2.6,0,0,0-.945,1.2c-.226.769-.5,1.523-.759,2.281a.763.763,0,0,1-.72.585.716.716,0,0,1-.672-.506.745.745,0,0,1,0-.4c.336-1.037.674-2.074,1.039-3.1a1.3,1.3,0,0,1,.386-.5c.837-.735,1.677-1.465,2.53-2.181a1.479,1.479,0,0,1,2.337.5c.394.783.767,1.578,1.19,2.345a2.422,2.422,0,0,0,.657.761c.724.533,1.483,1.018,2.223,1.528a.732.732,0,0,1,.375.9.685.685,0,0,1-1.016.393c-1.019-.672-2.03-1.357-3.021-2.069a2.134,2.134,0,0,1-.435-.662c-.074-.123-.132-.254-.2-.38Z" transform="translate(-23.589 -143.557)" fill="#fff"/>
    <path id="Path_7" data-name="Path 7" d="M406.191,416.261a1.841,1.841,0,1,1-3.681-.01,1.841,1.841,0,1,1,3.681.01Z" transform="translate(-268.306 -124.039)" fill="#fff"/>
    <path id="Path_8" data-name="Path 8" d="M146.451,414.929a1.766,1.766,0,1,1-1.759-1.8A1.789,1.789,0,0,1,146.451,414.929Z" transform="translate(-50.647 -122.974)" fill="#fff"/>
    <path id="Path_9" data-name="Path 9" d="M356.087,515.18c.239.365.551.643.5,1.1a.829.829,0,0,1-.63.719c-.208.042-.317,0-.318-.247A3.088,3.088,0,0,1,356.087,515.18Z" transform="translate(-229.006 -208.54)" fill="#fff"/>
  </g>
</svg>
