<svg xmlns="http://www.w3.org/2000/svg" width="73.685" height="46.057" viewBox="0 0 73.685 46.057">
  <g id="wave_tidal" data-name="wave tidal" transform="translate(-120.129 -294.58)">
    <path id="Path_102" data-name="Path 102" d="M218.9,444.022a.54.54,0,0,1-.059-.152c-.044-1.861-.182-2.145,1.833-2.015a2.345,2.345,0,0,0,2.108-.932c3.164-3.589,6.386-7.128,9.569-10.7a1.388,1.388,0,0,0,.3-.84c.024-2.443.013-4.885.013-7.328v-.565h2.478v.564c0,2.443-.013,4.886.013,7.328a1.457,1.457,0,0,0,.33.881q5.011,5.622,10.068,11.2a1.329,1.329,0,0,0,.8.352c.565.054,1.142.006,1.711.02.628.015.9.285.914.906.011.41,0,.819,0,1.268h-8.4c0-.515-.028-1,.007-1.489s.374-.669.814-.686c.387-.015.777,0,1.362,0l-8.868-9.867c-2.942,3.268-5.852,6.5-8.879,9.869.547,0,.931-.011,1.312,0,.619.022.884.3.9.921.011.408,0,.817,0,1.259C224.425,444.022,221.678,444.022,218.9,444.022Z" transform="translate(-80.398 -103.384)" fill="#fff"/>
    <path id="Path_103" data-name="Path 103" d="M206.36,414.246c1.435-1.151,2.873-2.312,4.317-3.465,2.093-1.672,4.193-3.333,6.277-5.014a1.2,1.2,0,0,1,1.021-.3c.621.1,1.249.158,1.874.232.039.006.08,0,.117.011a4.2,4.2,0,0,1,.979,2.021.614.614,0,0,0-.054.1c-.408,1.652-1.548,2.417-3.111,2.971-3.446,1.225-6.824,2.645-10.229,3.987C206.753,415.11,206.755,415.114,206.36,414.246Z" transform="translate(-70.246 -90.318)" fill="#fff"/>
    <path id="Path_104" data-name="Path 104" d="M329.874,414.859l-.488.79c-2.119-.827-4.223-1.648-6.327-2.467-2.126-.829-4.258-1.642-6.373-2.5a2.254,2.254,0,0,1-.717-.688,1.812,1.812,0,0,1-.217-.482c-.667-1.594-.669-1.594.235-3a.667.667,0,0,1,.263-.193.841.841,0,0,1,.232-.043c2.161-.337,2.165-.343,3.887,1.02q4.516,3.573,9.024,7.157C329.544,414.569,329.687,414.7,329.874,414.859Z" transform="translate(-158.973 -90.834)" fill="#fff"/>
    <path id="Path_105" data-name="Path 105" d="M290.012,294.58c.237,1.78.454,3.415.671,5.05.378,2.847.767,5.695,1.118,8.546a2.148,2.148,0,0,1-.234.912,1.874,1.874,0,0,1-.308.43c-1.029,1.375-1.029,1.383-2.7,1.279a.83.83,0,0,1-.5-.321c-.412-.526-.8-1.071-1.172-1.628a.838.838,0,0,1-.111-.547c.73-4.4,1.483-8.805,2.208-13.21C289.1,294.363,289.609,294.8,290.012,294.58Z" transform="translate(-135.746)" fill="#fff"/>
    <path id="Path_106" data-name="Path 106" d="M282.833,491.747c.773,0,1.44-.006,2.106,0,.743.007.982.254.988,1,0,.369,0,.74,0,1.151H277.55a7.185,7.185,0,0,1,.037-1.6c.054-.232.5-.493.786-.525a21.763,21.763,0,0,1,2.239-.024c0-1.17.082-2.275-.024-3.361a1.437,1.437,0,1,1,2.267-.082A34.126,34.126,0,0,0,282.833,491.747Z" transform="translate(-128.217 -155.961)" fill="#fff"/>
    <path id="Path_107" data-name="Path 107" d="M417.894,353.566c-.132.176-.217.4-.363.454a.825.825,0,0,1-.6-.043c-.651-.323-1.27-.7-1.92-1.027a2.753,2.753,0,0,0-2.868.122,5.176,5.176,0,0,1-5.93.106,3.709,3.709,0,0,0-4.13.07c-2.449,1.531-4.614.927-6.668-.743a.817.817,0,0,1-.191-.743c.146-.345.5-.321.8-.117.36.241.7.51,1.071.732a3.768,3.768,0,0,0,3.974.184c.208-.113.426-.206.627-.328a4.776,4.776,0,0,1,4.944-.065c.28.143.573.265.849.413a3.175,3.175,0,0,0,3.263-.022c.137-.078.28-.145.419-.219a5.3,5.3,0,0,1,6.371.777A2.975,2.975,0,0,1,417.894,353.566Z" transform="translate(-224.079 -46.366)" fill="#fff"/>
    <path id="Path_108" data-name="Path 108" d="M120.6,486.38c.356.228.66.4.944.61a4.722,4.722,0,0,0,2.245.971,3.314,3.314,0,0,0,2.267-.458,5.38,5.38,0,0,1,6.16-.076,3.608,3.608,0,0,0,3.852-.067,5.148,5.148,0,0,1,6.41.71.817.817,0,0,1,.189.738c-.148.347-.484.3-.8.119-.649-.367-1.3-.736-1.972-1.057a2.787,2.787,0,0,0-2.714.109c-.272.156-.564.28-.836.437a4.342,4.342,0,0,1-4.5.035c-.38-.2-.78-.376-1.173-.554a3.449,3.449,0,0,0-3.233.106c-.361.2-.729.389-1.1.573a4.8,4.8,0,0,1-4.883-.343,7.676,7.676,0,0,1-1.151-.821.733.733,0,0,1-.165-.612C120.18,486.641,120.424,486.53,120.6,486.38Z" transform="translate(0 -156.246)" fill="#fff"/>
    <path id="Path_109" data-name="Path 109" d="M179.666,300.319a9.782,9.782,0,0,0-1.053.315c-.452.191-.89.417-1.322.651a4.2,4.2,0,0,1-4.069.109c-.634-.311-1.281-.6-1.939-.855a3,3,0,0,0-2.462.13c-.408.2-.81.4-1.209.614a5.862,5.862,0,0,1-6.19-1.047c-.148-.159-.128-.473-.184-.717.26-.046.562-.2.769-.115a6.577,6.577,0,0,1,1.033.675,3.6,3.6,0,0,0,4.113.209,5.5,5.5,0,0,1,6.219-.02,3.2,3.2,0,0,0,3.624-.056c2.035-1.368,3.973-1.012,5.9.211a2.348,2.348,0,0,1,.671.469,2.113,2.113,0,0,1,.2.753c-.261.037-.571.18-.777.089-.678-.3-1.305-.727-1.982-1.034A8.781,8.781,0,0,0,179.666,300.319Z" transform="translate(-33.49 -3.856)" fill="#fff"/>
    <path id="Path_110" data-name="Path 110" d="M343.715,373.68c.35.208.66.36.934.562a3.93,3.93,0,0,0,2.7.994,3.972,3.972,0,0,0,1.73-.436,5.669,5.669,0,0,1,6.444-.031,3.014,3.014,0,0,0,3.407-.037c2.208-1.492,4.273-1.04,6.31.336.163.109.4.191.465.345a.953.953,0,0,1,.046.723c-.067.124-.475.185-.651.1-.586-.274-1.127-.64-1.7-.942a3.065,3.065,0,0,0-3.3.067,4.986,4.986,0,0,1-5.709.082,3.613,3.613,0,0,0-3.168-.454,9.645,9.645,0,0,0-1.429.688,4.922,4.922,0,0,1-5.528-.386,4.232,4.232,0,0,1-.8-.591.853.853,0,0,1-.158-.623C343.316,373.945,343.539,373.839,343.715,373.68Z" transform="translate(-181.797 -64.437)" fill="#fff"/>
    <path id="Path_111" data-name="Path 111" d="M285.35,389.8a2.749,2.749,0,1,1,2.73,2.758A2.766,2.766,0,0,1,285.35,389.8Z" transform="translate(-134.593 -75.328)" fill="#fff"/>
  </g>
</svg>
