<svg xmlns="http://www.w3.org/2000/svg" width="52.273" height="45" viewBox="0 0 52.273 45">
  <g id="wind" transform="translate(-193.064 -245.57)">
    <path id="Path_77" data-name="Path 77" d="M283.02,365.709h-6.36q.814-10.624,1.629-21.249a2.66,2.66,0,0,0,4.163-1.74c.255.029.509.058.762.089a7.044,7.044,0,0,1,.762.1.914.914,0,0,1,.461.228c.488.55.947,1.126,1.423,1.688.657.776,1.324,1.546,1.981,2.321q1.286,1.514,2.568,3.033l2.345,2.765c.576.679,1.153,1.355,1.725,2.036a.644.644,0,0,1,.029.83c-.154.231-.323.455-.632.428a.822.822,0,0,1-.461-.179c-1.027-.941-2.041-1.9-3.058-2.848q-2.75-2.572-5.5-5.143l-3.323-3.1c-.025-.023-.052-.047-.111-.1C281.956,351.839,282.487,358.77,283.02,365.709Zm2.135-20.063c-.2-.051-.185.222-.305.227l.4.233c-.058-.066-.1-.115-.136-.157C284.958,345.784,284.964,345.749,285.154,345.646Zm-.455.762c-.113-.1-.2-.171-.323-.089a.2.2,0,0,0-.087.272C284.379,346.329,284.412,346.313,284.7,346.408Z" transform="translate(-67.343 -78.261)" fill="#fff"/>
    <path id="Path_78" data-name="Path 78" d="M210.052,315.819a2.66,2.66,0,0,0,.074,2.143c-.642.226-1.27.463-1.909.665a.8.8,0,0,1-.511-.041c-1.81-.76-3.612-1.534-5.419-2.306s-3.6-1.54-5.4-2.308q-1.662-.709-3.325-1.414a.816.816,0,0,1-.348-1.229.648.648,0,0,1,.764-.247q2.17.636,4.34,1.277,4.5,1.327,8.992,2.658C208.218,315.284,209.126,315.549,210.052,315.819Z" transform="translate(0 -52.747)" fill="#fff"/>
    <path id="Path_79" data-name="Path 79" d="M294.054,256.5q-.866,1.9-1.73,3.809c-.259.568-.521,1.132-.787,1.709a2.513,2.513,0,0,0-1.252-.558,4.163,4.163,0,0,0-.661-.018c-.117,0-.156-.029-.177-.146-.1-.535-.208-1.067-.315-1.6a.836.836,0,0,1,.113-.632q2.485-4.057,4.962-8.121,1.531-2.508,3.066-5.018c.272-.445.644-.422,1.108-.206a.646.646,0,0,1,.243.92l-3.955,8.584a2.723,2.723,0,0,1-.187.358c-.025.039-.1.043-.156.062l-.045.062a1.084,1.084,0,0,0-.323.84l.1-.041Z" transform="translate(-77.374 0)" fill="#fff"/>
    <path id="Path_80" data-name="Path 80" d="M339.972,309.442c-.362.126-.717.229-1.058.371a11.935,11.935,0,0,0-2.15,1.262,21.95,21.95,0,0,1-4.007,2.3,9.607,9.607,0,0,1-2.547.723,7.11,7.11,0,0,1-2.251-.087c-1-.21-2-.455-3-.684a6.42,6.42,0,0,0-3.717.245.881.881,0,0,1-.191.047,4.813,4.813,0,0,1,1.349-.873,5.353,5.353,0,0,1,2.545-.439,20.279,20.279,0,0,1,2.226.237,8.746,8.746,0,0,0,5.078-.511c1.3-.558,2.592-1.151,3.887-1.732a10.544,10.544,0,0,1,2.329-.813A4.085,4.085,0,0,1,339.972,309.442Z" transform="translate(-103.102 -51.411)" fill="#fff"/>
    <path id="Path_81" data-name="Path 81" d="M382.982,362.069a5.532,5.532,0,0,1-1.653.354,6.822,6.822,0,0,1-3.311-.756c-.719-.336-1.425-.708-2.152-1.027a8.024,8.024,0,0,0-2.178-.618,9.493,9.493,0,0,0-2.166-.023,17.388,17.388,0,0,0-2.763.556c-.809.214-1.618.434-2.438.589a3.642,3.642,0,0,1-2.32-.229c-.021-.01-.041-.023-.062-.035,0,0,0-.012-.01-.025a4.4,4.4,0,0,0,2.294-.412c.962-.408,1.911-.852,2.879-1.24a9.981,9.981,0,0,1,3.467-.714,8.033,8.033,0,0,1,4.373,1.17c.865.511,1.709,1.056,2.58,1.553a6.22,6.22,0,0,0,2.961.807c.163,0,.329,0,.494,0C382.98,362.036,382.98,362.051,382.982,362.069Z" transform="translate(-137.645 -90.961)" fill="#fff"/>
    <path id="Path_82" data-name="Path 82" d="M275.43,465.911c.07-.906.138-1.789.206-2.681h6.428c.068.892.136,1.781.206,2.681Z" transform="translate(-66.352 -175.341)" fill="#fff"/>
    <path id="Path_83" data-name="Path 83" d="M346.234,343.224a3.419,3.419,0,0,1-.6.167,7.873,7.873,0,0,1-5.483-1.517c-.224-.159-.428-.344-.671-.54.626.161,1.207.323,1.793.461a11.436,11.436,0,0,0,3.117.311,11.24,11.24,0,0,0,2.73-.525,15.912,15.912,0,0,1,3.354-.677,12.3,12.3,0,0,1,4.244.362c.041.012.08.029.157.056-.62.1-1.2.206-1.783.3a36.716,36.716,0,0,0-5.038,1.2c-.387.122-.789.2-1.186.3-.062-.016-.13-.052-.185-.039-.152.039-.3.1-.447.15C346.236,343.236,346.234,343.224,346.234,343.224Z" transform="translate(-117.949 -76.763)" fill="#fff"/>
    <path id="Path_84" data-name="Path 84" d="M283.813,333.678a2.215,2.215,0,1,1,2.226-2.228A2.218,2.218,0,0,1,283.813,333.678Z" transform="translate(-71.323 -67.409)" fill="#fff"/>
    <path id="Path_85" data-name="Path 85" d="M314.764,297.432c.016-.021.031-.041.045-.062a.993.993,0,0,1-.012.305c-.07.191-.169.371-.257.554l.006,0c.014-.068.023-.138.043-.2C314.643,297.829,314.7,297.631,314.764,297.432Z" transform="translate(-97.858 -41.729)" fill="#fff"/>
    <path id="Path_86" data-name="Path 86" d="M374.23,352.448c.15-.052.3-.113.447-.15.054-.014.122.025.185.039v-.006Z" transform="translate(-145.943 -85.975)" fill="#fff"/>
    <path id="Path_87" data-name="Path 87" d="M374.226,352.6l.634-.117c-.2.052-.4.1-.607.156,0,0-.017-.033-.027-.051C374.224,352.585,374.226,352.6,374.226,352.6Z" transform="translate(-145.939 -86.124)" fill="#fff"/>
    <path id="Path_88" data-name="Path 88" d="M319.085,357.744c-.192.105-.2.14-.041.3.041.043.08.089.136.158l-.4-.233C318.9,357.966,318.883,357.694,319.085,357.744Z" transform="translate(-101.274 -90.359)" fill="#fff"/>
    <path id="Path_89" data-name="Path 89" d="M316.213,361.173c-.286-.1-.319-.08-.41.183a.2.2,0,0,1,.088-.272C316.011,361,316.1,361.073,316.213,361.173Z" transform="translate(-98.856 -93.026)" fill="#fff"/>
    <path id="Path_90" data-name="Path 90" d="M314.361,297.69c-.058.2-.119.395-.175.595-.019.066-.029.136-.043.2l-.1.041A1.079,1.079,0,0,1,314.361,297.69Z" transform="translate(-97.455 -41.986)" fill="#fff"/>
  </g>
</svg>
