<?xml version="1.0" encoding="UTF-8"?>
<!DOCTYPE svg PUBLIC "-//W3C//DTD SVG 1.1//EN" "http://www.w3.org/Graphics/SVG/1.1/DTD/svg11.dtd">
<svg xmlns="http://www.w3.org/2000/svg" version="1.1" width="96px" height="96px" style="shape-rendering:geometricPrecision; text-rendering:geometricPrecision; image-rendering:optimizeQuality; fill-rule:evenodd; clip-rule:evenodd" xmlns:xlink="http://www.w3.org/1999/xlink">
<g><path style="opacity:0.808" fill="#fefffe" d="M 31.5,7.5 C 34.0376,10.2452 35.5376,13.5785 36,17.5C 36.8283,22.202 36.6616,26.8687 35.5,31.5C 33.5,30.1667 31.5,30.1667 29.5,31.5C 27.8472,23.2643 28.5139,15.2643 31.5,7.5 Z"/></g>
<g><path style="opacity:0.777" fill="#fefffe" d="M 79.5,14.5 C 86.4933,12.9959 89.3267,15.6625 88,22.5C 87.5,23.6667 86.6667,24.5 85.5,25C 74.505,25.4998 63.505,25.6665 52.5,25.5C 52.5,24.5 52.5,23.5 52.5,22.5C 62.5056,22.6665 72.5056,22.4998 82.5,22C 86.2789,20.8902 86.4456,19.3902 83,17.5C 81.7432,19.7458 79.9099,21.0791 77.5,21.5C 77.1658,18.812 77.8325,16.4786 79.5,14.5 Z"/></g>
<g><path style="opacity:0.645" fill="#fefffe" d="M 52.5,27.5 C 64.1714,27.3335 75.8381,27.5001 87.5,28C 88.8333,29 88.8333,30 87.5,31C 75.8381,31.4999 64.1714,31.6665 52.5,31.5C 52.5,30.1667 52.5,28.8333 52.5,27.5 Z"/></g>
<g><path style="opacity:0.636" fill="#fefffe" d="M 29.5,32.5 C 38.3058,32.464 40.6391,36.2974 36.5,44C 31.0252,46.4306 27.3586,44.7639 25.5,39C 26.2193,36.3829 27.5526,34.2162 29.5,32.5 Z M 34.5,37.5 C 33.1667,37.5 31.8333,37.5 30.5,37.5C 30.5,38.5 30.5,39.5 30.5,40.5C 29.1991,39.1155 29.1991,37.6155 30.5,36C 32.3524,35.2274 33.6857,35.7274 34.5,37.5 Z M 34.5,37.5 C 35.7994,39.1534 35.4661,40.6534 33.5,42C 32.0024,42.5847 31.0024,42.0847 30.5,40.5C 32.9726,40.9118 34.3059,39.9118 34.5,37.5 Z"/></g>
<g><path style="opacity:0.779" fill="#fefffe" d="M 52.5,33.5 C 63.8382,33.3335 75.1716,33.5001 86.5,34C 88.4439,36.1529 88.9439,38.6529 88,41.5C 85.0737,45.08 81.7404,45.4133 78,42.5C 77.5065,40.8659 77.3398,39.1992 77.5,37.5C 79.6847,37.8881 81.518,38.8881 83,40.5C 86.0878,39.7464 86.2545,38.5797 83.5,37C 73.172,36.5002 62.8387,36.3335 52.5,36.5C 52.5,35.5 52.5,34.5 52.5,33.5 Z"/></g>
<g><path style="opacity:0.426" fill="#fefffe" d="M 34.5,37.5 C 34.3059,39.9118 32.9726,40.9118 30.5,40.5C 30.5,39.5 30.5,38.5 30.5,37.5C 31.8333,37.5 33.1667,37.5 34.5,37.5 Z"/></g>
<g><path style="opacity:0.776" fill="#fefffe" d="M 40.5,39.5 C 47.3733,42.8741 53.2067,47.5407 58,53.5C 58.7494,54.635 58.5827,55.635 57.5,56.5C 49.4093,55.1213 42.4093,51.6213 36.5,46C 38.6659,44.322 39.9993,42.1553 40.5,39.5 Z"/></g>
<g><path style="opacity:0.792" fill="#fefffe" d="M 22.5,40.5 C 24.797,41.8347 26.797,43.6681 28.5,46C 22.2833,52.2878 14.95,55.4545 6.5,55.5C 10.5692,49.0958 15.9025,44.0958 22.5,40.5 Z"/></g>
<g><path style="opacity:0.855" fill="#fefffe" d="M 30.5,46.5 C 31.8333,46.5 33.1667,46.5 34.5,46.5C 36.4122,60.1312 38.0789,73.7979 39.5,87.5C 35.1667,87.5 30.8333,87.5 26.5,87.5C 27.3731,73.7692 28.7065,60.1026 30.5,46.5 Z"/></g>
</svg>
