<svg xmlns="http://www.w3.org/2000/svg" xmlns:xlink="http://www.w3.org/1999/xlink" width="195" height="112" viewBox="0 0 195 112">
  <defs>
    <filter id="Rectangle_41" x="0" y="0" width="30" height="112" filterUnits="userSpaceOnUse">
      <feOffset dy="3" input="SourceAlpha"/>
      <feGaussianBlur stdDeviation="3" result="blur"/>
      <feFlood flood-opacity="0.161"/>
      <feComposite operator="in" in2="blur"/>
      <feComposite in="SourceGraphic"/>
    </filter>
    <filter id="Rectangle_42" x="0" y="49" width="30" height="62" filterUnits="userSpaceOnUse">
      <feOffset dy="3" input="SourceAlpha"/>
      <feGaussianBlur stdDeviation="3" result="blur-2"/>
      <feFlood flood-opacity="0.161"/>
      <feComposite operator="in" in2="blur-2"/>
      <feComposite in="SourceGraphic"/>
    </filter>
  </defs>
  <g id="Group_12" data-name="Group 12" transform="translate(-1225 -1685)">
    <g transform="matrix(1, 0, 0, 1, 1225, 1685)" filter="url(#Rectangle_41)">
      <g id="Rectangle_41-2" data-name="Rectangle 41" transform="translate(9 6)" fill="#fff" stroke="#707070" stroke-width="1">
        <rect width="12" height="94" rx="5" stroke="none"/>
        <rect x="0.5" y="0.5" width="11" height="93" rx="4.5" fill="none"/>
      </g>
    </g>
    <g transform="matrix(1, 0, 0, 1, 1225, 1685)" filter="url(#Rectangle_42)">
      <g id="Rectangle_42-2" data-name="Rectangle 42" transform="translate(9 55)" fill="#707070" stroke="#707070" stroke-width="1">
        <rect width="12" height="44" rx="5" stroke="none"/>
        <rect x="0.5" y="0.5" width="11" height="43" rx="4.5" fill="none"/>
      </g>
    </g>
    <g id="Ellipse_24" data-name="Ellipse 24" transform="translate(1229 1729)" fill="#f0a800" stroke="#fff" stroke-width="1">
      <ellipse cx="10.5" cy="11" rx="10.5" ry="11" stroke="none"/>
      <ellipse cx="10.5" cy="11" rx="10" ry="10.5" fill="none"/>
    </g>
    <text id="LEVEL:" transform="translate(1266 1744)" font-size="25" font-family="Arial-BoldMT, Arial" font-weight="700"><tspan x="0" y="0">LEVEL:</tspan></text>
    <g id="Rectangle_40" data-name="Rectangle 40" transform="translate(1362 1715)" fill="#054170" stroke="#fff" stroke-width="2">
      <rect width="58" height="40" rx="5" stroke="none"/>
      <rect x="1" y="1" width="56" height="38" rx="4" fill="none"/>
    </g>
    <text id="_2" data-name="2" transform="translate(1384 1744)" fill="#f0a828" font-size="25" font-family="Arial-BoldMT, Arial" font-weight="700"><tspan x="0" y="0">2</tspan></text>
  </g>
</svg>
