<svg xmlns="http://www.w3.org/2000/svg" xmlns:xlink="http://www.w3.org/1999/xlink" width="195" height="112" viewBox="0 0 195 112">
  <defs>
    <filter id="Rectangle_41" x="0" y="0" width="30" height="112" filterUnits="userSpaceOnUse">
      <feOffset dy="3" input="SourceAlpha"/>
      <feGaussianBlur stdDeviation="3" result="blur"/>
      <feFlood flood-opacity="0.161"/>
      <feComposite operator="in" in2="blur"/>
      <feComposite in="SourceGraphic"/>
    </filter>
    <filter id="Rectangle_42" x="0" y="5" width="30" height="106" filterUnits="userSpaceOnUse">
      <feOffset dy="3" input="SourceAlpha"/>
      <feGaussianBlur stdDeviation="3" result="blur-2"/>
      <feFlood flood-opacity="0.161"/>
      <feComposite operator="in" in2="blur-2"/>
      <feComposite in="SourceGraphic"/>
    </filter>
  </defs>
  <g id="Group_49" data-name="Group 49" transform="translate(-1252 -2051)">
    <g transform="matrix(1, 0, 0, 1, 1252, 2051)" filter="url(#Rectangle_41)">
      <g id="Rectangle_41-2" data-name="Rectangle 41" transform="translate(9 6)" fill="#fff" stroke="#707070" stroke-width="1">
        <rect width="12" height="94" rx="5" stroke="none"/>
        <rect x="0.5" y="0.5" width="11" height="93" rx="4.5" fill="none"/>
      </g>
    </g>
    <g transform="matrix(1, 0, 0, 1, 1252, 2051)" filter="url(#Rectangle_42)">
      <g id="Rectangle_42-2" data-name="Rectangle 42" transform="translate(9 11)" fill="#707070" stroke="#707070" stroke-width="1">
        <rect width="12" height="88" rx="5" stroke="none"/>
        <rect x="0.5" y="0.5" width="11" height="87" rx="4.5" fill="none"/>
      </g>
    </g>
    <g id="Ellipse_24" data-name="Ellipse 24" transform="translate(1256 2054)" fill="#f0a800" stroke="#fff" stroke-width="1">
      <ellipse cx="10.5" cy="11" rx="10.5" ry="11" stroke="none"/>
      <ellipse cx="10.5" cy="11" rx="10" ry="10.5" fill="none"/>
    </g>
    <text id="LEVEL:" transform="translate(1293 2110)" font-size="25" font-family="Arial-BoldMT, Arial" font-weight="700"><tspan x="0" y="0">LEVEL:</tspan></text>
    <g id="Rectangle_40" data-name="Rectangle 40" transform="translate(1389 2081)" fill="#054170" stroke="#fff" stroke-width="2">
      <rect width="58" height="40" rx="5" stroke="none"/>
      <rect x="1" y="1" width="56" height="38" rx="4" fill="none"/>
    </g>
    <text id="_4" data-name="4" transform="translate(1411 2110)" fill="#f0a828" font-size="25" font-family="Arial-BoldMT, Arial" font-weight="700"><tspan x="0" y="0">4</tspan></text>
  </g>
</svg>
