<svg xmlns="http://www.w3.org/2000/svg" xmlns:xlink="http://www.w3.org/1999/xlink" width="205" height="115" viewBox="0 0 205 115">
  <defs>
    <filter id="Rectangle_38" x="0" y="0" width="30" height="115" filterUnits="userSpaceOnUse">
      <feOffset dy="3" input="SourceAlpha"/>
      <feGaussianBlur stdDeviation="3" result="blur"/>
      <feFlood flood-opacity="0.161"/>
      <feComposite operator="in" in2="blur"/>
      <feComposite in="SourceGraphic"/>
    </filter>
    <filter id="Rectangle_43" x="0" y="25" width="30" height="90" filterUnits="userSpaceOnUse">
      <feOffset dy="3" input="SourceAlpha"/>
      <feGaussianBlur stdDeviation="3" result="blur-2"/>
      <feFlood flood-opacity="0.161"/>
      <feComposite operator="in" in2="blur-2"/>
      <feComposite in="SourceGraphic"/>
    </filter>
  </defs>
  <g id="Group_50" data-name="Group 50" transform="translate(-402 -2042)">
    <text id="LEVEL:" transform="translate(448 2109)" font-size="26" font-family="Arial-BoldMT, Arial" font-weight="700"><tspan x="0" y="0">LEVEL:</tspan></text>
    <g id="Rectangle_40" data-name="Rectangle 40" transform="translate(547 2079)" fill="#054170" stroke="#fff" stroke-width="2">
      <rect width="60" height="42" rx="5" stroke="none"/>
      <rect x="1" y="1" width="58" height="40" rx="4" fill="none"/>
    </g>
    <text id="_3" data-name="3" transform="translate(570 2109)" fill="#f0a828" font-size="26" font-family="Arial-BoldMT, Arial" font-weight="700"><tspan x="0" y="0">3</tspan></text>
    <g transform="matrix(1, 0, 0, 1, 402, 2042)" filter="url(#Rectangle_38)">
      <g id="Rectangle_38-2" data-name="Rectangle 38" transform="translate(9 6)" fill="#fff" stroke="#707070" stroke-width="1">
        <rect width="12" height="97" rx="5" stroke="none"/>
        <rect x="0.5" y="0.5" width="11" height="96" rx="4.5" fill="none"/>
      </g>
    </g>
    <g transform="matrix(1, 0, 0, 1, 402, 2042)" filter="url(#Rectangle_43)">
      <g id="Rectangle_43-2" data-name="Rectangle 43" transform="translate(9 31)" fill="#707070" stroke="#707070" stroke-width="1">
        <rect width="12" height="72" rx="5" stroke="none"/>
        <rect x="0.5" y="0.5" width="11" height="71" rx="4.5" fill="none"/>
      </g>
    </g>
    <g id="Ellipse_23" data-name="Ellipse 23" transform="translate(406 2065)" fill="#f0a800" stroke="#fff" stroke-width="1">
      <circle cx="11" cy="11" r="11" stroke="none"/>
      <circle cx="11" cy="11" r="10.5" fill="none"/>
    </g>
  </g>
</svg>
